<?xml version="1.0" encoding="UTF-8"?><svg id="b" xmlns="http://www.w3.org/2000/svg" viewBox="0 0 237.84 279.75"><g id="c"><path d="M197.92,279.75h-6c0-.34,0-.67,0-1.01,0-.68,0-1.37,.01-2.05,.98,0,1.96,0,2.94,0,1.64,.02,3.27,0,4.9,.08,2.87,.15,4.35-1.05,4.13-4.03,2.47-.28,5.11,.55,7.82-.76-4.19-3.05-8.47-3.57-12.95-3.24-.33-1.26-.66-2.52-.99-3.77,.69-1.31-2.22-3.91,1.36-4.14,2.2-.14,4.94-.78,4.81,3.07-.05,1.56,.03,3.49,2.39,1.43,.88-.77,1.9-.51,2.72,.18,2.16,1.84,2.94,.93,4.41-1.22,1.91-2.81,4.71-5.47,8.61-2.28-1.33,2.18-1.71,5.26-4.17,6.34-2.28,1-1.94,2.69-2.29,4.34-1.52,1.75-1.94,3.8-1.69,6.04-.36,.03-.72,.06-1.08,.09-1.08-.04-2.23-.26-2.92,.93h-6c-2-1.5-4-1.47-6,0Z" fill="#f7e1d8"/><path d="M159.94,279.75c.71-1.23,1.98-.87,3.05-1.1,2.33,.05,4.65,.09,6.98,.14,7.32-.02,14.64-.04,21.95-.05,0,.34,0,.67,0,1.01h-31.99Z" fill="#fefefe"/><path d="M197.92,279.75c2-1.47,4-1.5,6,0h-6Z" fill="#fefefe"/><path d="M212.84,278.82c.05,.31,.08,.62,.08,.93h-3c.69-1.19,1.84-.97,2.92-.93Z" fill="#fefefe"/><path d="M35.82,.16c.06,.94,.12,1.89,.18,2.83,1.2,3.83-2.07,3.17-3.94,3.93-.98-2.31-2.65-4.33-2.99-6.92,2.25,.05,4.5,.11,6.75,.16Z" fill="#b7a98e"/><path d="M57.92,229.78c-.06-.65-.13-1.3-.19-1.96-.82-1.95-2.22-3.76-1.62-6.09,1.53-.04,1.57-1.36,2.16-2.33,2.59-4.28,4.38-4.97,9.67-4.03-1.69,2.07-4,3.35-6.17,4.77,.75,1.38,2.56-.08,3.2,1.22-1.4,1.98-4.72,2.64-3.31,6.07,.54,1.31,.91,2.48,2.64,2.38,3.14-.18,3.69-2.83,4.91-4.93,4.11-7.09,6.2-15.12,10.42-22.17,.88-1.48,.15-2.99-2.11-2.64-4.42,.69-8.96,1.18-10.98,6.49,1.88,.15,3.66,.29,5.63,.45-1.86,1.93-5.07,1.21-6.27,3.88-.58,1.29-1.65,2.32-3.16,1.46-1.19-.67-1.17-2.36-.67-3.15,1.62-2.54,.22-5.16,.58-7.7,.12-.87-.53-1.63,.44-2.63,2.57-2.65,3.44-6.27,4.83-9.59,.54-.3,1.08-.61,1.62-.91,.15,1.14,.29,2.28,.43,3.42-.07,.14-.15,.29-.22,.43,.08-.14,.15-.28,.23-.42,4.11-.44,10.15,3.91,11.05-4.46,2.5-.33,4.2-1.99,5.93-3.59,.97,1.52,2.5,.84,3.82,.98-.39,3.45-3.14,1.48-4.77,2.08-1.45,1.18-1.1,3.82-3.78,3.82,1.09,1.73,4.43,.86,3.43,3.27-1.21,2.9,1.56,2.67,2.35,3.94-4.01,2.99-1.81,5.91,.1,8.84-.05,2.62-.93,4.42-3.99,4.11-1,.02-2.44-.37-2.91,.14-1.83,1.98-5.78,2.4-5.09,6.32,.62,3.53,3.21,.88,4.8,1.43-1.98,6.35-6.8,11.26-8.91,17.54-2.02,1.15-4.05,2.3-6.07,3.45-2.78,.98-5.09,1.56-5.05-2.88,.02-1.66-1.26-3.33-1.95-5-.33-.67-.67-1.34-1-2.01Zm9.69-30.98c3.07,0,6.14-.04,9.21,.02,1.88,.04,3.59-.11,4.9-1.76,.64-.81,1.46-1.48,.8-2.53-.52-.83-1.46-.34-2.23-.43-4.75-.57-8.83,1.14-12.68,4.71Z" fill="#849679"/><path d="M72,236.22c2.11-6.28,6.93-11.19,8.91-17.54,.78-2.74,3.13-4.85,3.2-7.88,3.06,.32,3.95-1.49,3.99-4.11,1.9,2.67,5.61,2.57,7.67,5,.15,.41,.29,.83,.44,1.24l-.09,1.82c-.62,3.88-4.61,6-5.17,9.92-.92,2.18-2.79,3.44-4.59,4.76-.2,0-.33,.09-.39,.29-1.33,.98-2.66,1.96-3.99,2.94-.66,.18-1.31,.36-1.97,.53-2.67,1.01-5.34,2.02-8.01,3.04Z" fill="#66835f"/><path d="M144.96,245.78c-2.06-3.15-.55-6.68-1.03-9.99,1.35,0,2.7,.02,4.05,.03,.6,3.31-2.1,8.09,3.97,8.99-.7,6.52,3.7,6.24,8.05,6.02-.03,6.63-.05,13.27-.08,19.9-1.99,.69-4.01-2.19-5.99,.03-1.66-.67-3.32-1.34-4.98-2-2.45-2.94-6.44-5.12-4.97-10.01,1.65,.21,3.3,1.43,4.97,.03,1.88,.72-1.29,4,2,3.99,1.13,0,2.49,.17,2.82-1.32,.35-1.6,.57-3.3-.61-4.71-1.12-1.33-2.71-.88-4.16-.9-2.01-3.08-.62-7.53-4.03-10.05Z" fill="#f7e1d8"/><path d="M148.94,258.77c-1.66,1.4-3.31,.18-4.97-.03,0-1.33-.02-2.65-.03-3.97,.26-3-.71-6.15,1.02-8.99,3.41,2.52,2.02,6.97,4.03,10.04-.02,.98-.04,1.96-.05,2.94Z" fill="#eeede8"/><path d="M57.92,229.78c.33,.67,.67,1.34,1,2.01-.87-.09-2.03,.28-2.4-.76-.39-1.09,.71-1.06,1.4-1.24Z" fill="#dbd3c9"/><path d="M35.99,25.92c.82-.03,1.57-.21,2-1.02,1.01-.66,2.01-1.33,3.02-1.99,2.14-.15,4.58,.22,4.91-2.95h.14c3.98-.87,7.96,.96,11.93-.04,.99,0,1.99,0,2.98,0,2.72,1.49,4.53,.21,6.02-2,2.3,.57,4.57,1.3,6.99,.99,0,.67-.01,1.34-.02,2.01-1.27,.33-2.52,.8-3.81,.96-1.7,.21-2.18,1.16-2.15,2.69,.03,1.7,.96,2.46,2.5,2.3,2.2-.22,3.38,2.07,5.45,2.02,5.54,2.22,8.21,6.88,9.97,12.14,.77,2.29,1.51,4.33,3.92,5.31,.45,.18,1.24,.52,1.22,.75-.32,5.5,4.03,10.26,2.52,15.9-.11,.41-1.06,.6-1.62,.9-2.04,.06-3.11,1.41-4,2.99-3.19-1.9-2.85-4.61-1.56-7.38,2.37-5.08,1.52-9.72-2.89-14.16-1.21,4.33-2.47,8.53-3.51,12.79-.34,1.37-.34,2.73-2.2,2.63-1.93-.11-1.81-1.63-1.83-2.94-.02-1.91-.48-3.61-1.92-4.95,0-2.65,0-5.31-.01-7.96,2.25-3.28,1.05-7.61,3.31-10.91,.07-.1-.55-.78-.94-1.07-2.3-1.73-4.94-3.06-7.78-2.68-4.76,.64-8.57-.22-11.11-4.66-.58-1.02-2.76-1.75-2.87-1.45-1.34,3.72-6.32,1.34-7.69,4.74-3.49,1.64-2.53,7.71-7.8,7.75-.87,0-.93,1.54,.01,2.38,1.02,.91,1.16,2.15,.41,3.12-.99,1.29-2.31,.95-3.47,0-1.62-1.33-1.58,.16-2.24,1.1-2.74,3.89-1.85,8.51-2.73,12.75-.73,3.51,4.35,3.09,4.82,6.05-.04,.86-.33,1.56-1.15,1.96-1.59-1.42-3.18-2.83-4.76-4.25-5.41-1.68-8.62,.61-8.24,5.93,.1,1.38,.32,2.6-1.43,3.16-3.63,1.16-2.46,2.31-.19,4.06,2.58,1.99,6.95,1.76,7.71,6.04-2.78,1.01-8.05-2.97-7.88,3.94-3.69,.7-4.59-4.13-7.98-4.03-.1-1.3,.23-2.72-.83-3.77-1.96-1.95-1.83-4.79-.97-6.52,3.68-7.47,1.93-15.62,3.52-23.3,.31-1.49-.31-2.18-1.72-2.35-.08-1.63-3.44-1.6-2.02-3.99,5.73,.68,9.89-1.38,12.07-6.9,1.67-.16,3.21,.3,4.82,.68,3.82,.89,6.64,.08,6.17-4.77,.97-.67,1.95-1.33,2.92-2Z" fill="#f7e1d8"/><path d="M0,29.88c1.6-1.51,1.81-.25,2.02,1.01-.84,0-1.59-.18-2.02-1.01Z" fill="#dbd3c9"/><path d="M159.92,270.72c.03-6.63,.05-13.27,.08-19.9,.64-.02,1.28-.04,1.92-.07,1.83-.15,2.32-1.42,1.81-2.81-.88-2.43-.21-5.11-1-7.34-1.3-3.67,.11-7.74-1.99-12.18-.43,1.56-.64,2.15-.76,2.76-.24,1.21,.47,2.99-1.36,3.31-1.9,.33-1.53-1.8-2.34-2.71-2.56-2.89-1.04-5.95-.34-8.97,0,0,0,0,0,0,2.73-.92,5.91-3.26,5.06-5.39-1.21-3-.68-5.76-1.07-8.6l2.97-.02c1.17,0,2.11-.42,3.17-1,2.93-1.62,5.8-3.7,9.51-2.97,1.32,.26,2.44,.46,1.17,2.09-.77,.99-1.26,2.2-.2,3.07,1,.82,1.59-.94,2.48-.94,2.81-.02,4.74-.98,6.46-3.47,.9-1.3,3.68-1.88,4.34,1.29-1.75-.06-3.07,.25-3.85,2.25-3.08,7.89-8.87,14.35-11.96,22.25-.71,1.81-2.43,1.33-3.88,1.32l-.13-.17c-.3-2.61-1.84-6.24-.68-7.63,3.45-4.12,1.31-9.5,4.08-13.58,1.04-1.54-.22-2.32-1.85-2.49-2.74-.29-5.23,1.16-5.28,3.4-.13,4.96-2.56,9.32-2.57,14.4,0,7.78,3.37,15.09,2.45,22.88-.02,.18,.43,.41,.83,.77,1.93-1.93,4.48-1.41,6.9-1.51-3.1,6.04-3.06,6.17,2.93,8.98,.42,.2,.74,.62,1.11,.94-3.17,.89-6.31-.01-9.43-.31-1.64-.16-3.7-1.16-3.97,1.08-.21,1.77,1.64,3.03,3.61,3.28,3.81,.49,7.52-.38,11.21-1.08,2.34-.44,.72-1.98,.53-3.09,2.1-3.92,4.02,1.28,6.07,.12,1.32,.03,2.64,.05,3.96,.08-1.52,3.33-5.06,1.02-7.3,2.52,1.7,5.33,6.14,2.94,9.47,3.53,0,1.3-.66,2-1.94,2.16-2.07,.42-4.18,.69-6.19,1.31-1.59,.49-4.13,.54-3.76,3.02,.34,2.31,2.81,.85,4.07,1.54,2.52,1.37,7.12-1.33,7.66,3.86,0,.68,0,1.37-.01,2.05-7.32,.02-14.64,.04-21.95,.05-.02-.89-.26-1.67-1.09-2.14,.12-1.84,2.42-4.1-.87-5.28-1.89-.67-4.13-1.85-5.08,1.35-1-.67-2.01-1.34-3.01-2.01Z" fill="#f6cfba"/><path d="M222.07,262.01c-3.89-3.18-6.7-.52-8.61,2.28-1.46,2.15-2.25,3.06-4.41,1.22-.82-.7-1.84-.95-2.72-.18-2.36,2.05-2.44,.12-2.39-1.43,.13-3.85-2.61-3.21-4.81-3.07-3.58,.23-.67,2.82-1.36,4.14-.58-.14-1.16-.28-1.75-.42-.81-2.28,1.63-5.59-2.19-6.92,1.86-1.57,4.06-.64,6.11-.82,2.55,2.77,4.39,2.77,6.99-.02,.31-.03,.62-.05,.93-.06,2.69,.62,4.28-1.03,5.88-2.78,4.62-5.02,9.77-9.35,12.54-16.15,1.92-4.72,2.42-7.72-2.38-11.02-.56-2.97,.49-5.54,2-7.99,.67-.01,1.35-.02,2.02-.03,2.91-.32,4.21,.76,4.06,3.9-.1,2.18-4.34,5.78,1.73,6.4,.12,.01,.24,1.24,.16,1.88-.26,2.06,.66,3.87,1.13,5.77-2.25-.06-3.21,.96-3.11,3.27,.13,2.93,.03,5.86,.03,8.8-1.22,1.76-2.24,3.7-3.69,5.25-2.31,2.49-2.53,6.56-6.17,8Z" fill="#f6cfba"/><path d="M191.93,276.69c-.55-5.19-5.15-2.49-7.66-3.86-1.26-.69-3.73,.77-4.07-1.54-.36-2.48,2.17-2.53,3.76-3.02,2.01-.62,4.12-.89,6.19-1.31-.38,2.3,.74,3.16,2.8,2.54,1.92-.58,3.82-.92,5.82-.77,4.48-.33,8.76,.19,12.95,3.24-2.71,1.31-5.34,.48-7.82,.76-2.83,1.73-6.88,.66-9.03,3.95-.98,0-1.96,0-2.94,0Z" fill="#f6bc96"/><path d="M198.77,268.74c-1.99-.15-3.89,.19-5.82,.77-2.06,.62-3.19-.24-2.8-2.54,1.27-.16,1.94-.86,1.94-2.16,1.31-.09,2.63-.18,3.95-.26,.58,.14,1.16,.28,1.75,.42,.33,1.26,.66,2.52,.99,3.78Z" fill="#f48a5a"/><path d="M194.87,276.69c2.15-3.29,6.2-2.21,9.03-3.95,.22,2.98-1.26,4.18-4.13,4.03-1.63-.09-3.27-.06-4.9-.08Z" fill="#f6cfba"/><path d="M115.65,78.12c-1.17-1.42-1.87-3.27-3.66-4.13-.14-.69-.28-1.39-.42-2.08,.16-.78,.11-1.5-.59-2.02,.01-.66,.03-1.32,.04-1.98,.71-3.22,3.72-2.62,5.83-3.51,2.36,.08,4.76-.3,7.06,.54,.04,1.24,.61,2.08,1.82,2.44,.28,.24,.55,.47,.83,.71,.46,1.68,1.27,3.02,3.2,3.26,.74,.22,1.47,.44,2.21,.66,.15,.17,.33,.19,.52,.06,.49,.61,.98,1.22,1.47,1.82,0,1.37,.53,2.99-1.55,3.43-1.33-.8-2.64-1.64-4.3-1.37-.98-1.08-2.34-1.99-2.88-3.26-1.7-3.97-4.47-2.59-6.99-1.49-3.07,1.33-2.31,4.39-2.58,6.93Z" fill="#66835f"/><path d="M75.94,28.9c-2.07,.04-3.25-2.25-5.45-2.02-1.54,.16-2.48-.6-2.5-2.3-.02-1.54,.45-2.48,2.15-2.69,1.29-.16,2.54-.63,3.81-.96,0,0,0,0,0,0,.05,1.28,.71,1.95,1.99,1.98,0,2,0,3.99,0,5.99Z" fill="#f6cfba"/><path d="M75.95,22.91c-1.29-.04-1.94-.71-1.99-1.98,1.3,.02,1.97,.67,1.99,1.98Z" fill="#f7e1d8"/><path d="M110.97,69.88c.71,.53,.76,1.24,.59,2.02-1.27-.36-2.08-.86-.59-2.02Z" fill="#dbd3c9"/><path d="M206.42,33.95c-.36-2.37-1.32-4.09,.49-5.5,.19-.15,1,.16,1.22,.47,1.38,1.9,.4,3.26-1.71,5.03Z" fill="#e1dbd5"/><path d="M183.08,23.46c.7,.33,.83,.95,.74,1.6-.08,.61-.13,1.46-1.07,1.24-.73-.17-.82-.92-.74-1.57,.08-.62,.11-1.35,1.06-1.27Z" fill="#e1dbd5"/><path d="M168.95,84.87c-2.59-9.62,3.08-15.11,9.99-19.98,6.02-3.66,12.4-3.86,19-1.99,.31,2.71,3.11,5.52-.46,8.1-.65,.47-.26,1.55,.46,2.16,1,.83,2.31,1.06,3.24,.39,1.8-1.3,4.13-2.17,4.75-4.69,4.59,2.16,9.32,3.81,14.46,4.03,7,.29,13.83,6.18,15.56,13.22,.63,2.57,3.26,4.84,.97,7.77-5.89,.18-7.08,1.94-4.92,7.22,.37,.9,.61,1.86,.91,2.79-1.56-.15-3.42,.53-4.08-1.8-.74-2.64-2.98-2.15-4.93-2.21-.03-.31-.06-.63-.07-.94,.04-1.35,.07-2.69,.11-4.04-.23-1.82,.73-3.85-.84-5.48-2.25,.52-2.9,3.2-5.17,3.47-1.24-.06-1.99-.61-1.96-1.95,3.54-1.09,1.4-4.01,1.95-6.07,.52-2.77-7.3-1.06-3.11-5.8-.15-.06-.33-.09-.45-.19-4.66-4.1-10.61-2.23-12.47,3.93l-.02,.02c-1.3,.08-1.95,.75-1.91,2.07-.86,3.89-2.52,3.05-4.64,.9-5.43-5.5-11.69-4.14-14.4,3.05-2.79-.66-5.71-2.12-7.71,1.56-.23,.43-1.5,.29-2.29,.42-.19-2.14,.78-4.67-1.97-5.96Zm27.98-17.59c-.03-2.49-1.89-3.03-3.93-3.34-1.95-.3-3.72,.67-3.56,2.41,.23,2.43,2.04,5.29,3.93,5.81,1.81,.49,2.82-2.66,3.56-4.87Z" fill="#f7e1d8"/><path d="M223.9,99.87c1.95,.06,4.19-.43,4.93,2.21,.66,2.33,2.53,1.65,4.08,1.8,1.58,1.04,3.38,1.59,1.38,4.28-.9,1.21-2.23,2.82-2.35,4.71-.01,2.66-.02,5.33-.03,7.99-.06,1.29-.71,1.99-2.03,1.97-.45-2.33,1.64-5.93-3.07-6.12,0-2.5-1.09-4.87-.1-7.57,.63-1.73-.35-3.84-2.81-4.29,0-1.66,0-3.31,0-4.97Z" fill="#f6cfba"/><path d="M170.91,90.84c.79-.13,2.06,0,2.29-.42,2-3.68,4.92-2.22,7.71-1.56,.14,1.44,.28,2.89,.42,4.33,.17,1.76,.24,3.55,1.54,4.96,.32,.25,.64,.5,.95,.75-.55,2.98,1.29,5.31,2.15,7.91-.45,.79,.89,3.2-1.79,1.99-2.77-2.03-1.66-6.04-4.19-8.19-1.36-1.89-4.59,.55-5.5-2.38-1.25,.48-2.78,1.01-2.42,2.62,.47,2.11,.04,4.72,2.43,6.04,2.05,1.13,2.38,2.97,2.38,5.02-1.86,.1-2.74,2.6-4.88,2.01,1.43-4.28-2.94-5.01-4.74-7.2-.61-.75-3.19-.01-3.44,2.23-1.32-.02-1.82,.78-1.94,1.96-.58-.27-1.3-.41-1.73-.83-1.21-1.2-2.66-1.87-3.75-.33-1.06,1.49-.24,2.68,1.54,3.31,2.48,.89,1.85,3.13,1.99,5.04,.28,4.05-.86,8.24,1.01,13.07,1.67-3.27,.7-5.94,1.18-8.4,1.1,3.48,3.31,6.69,2.15,11.16,2.17-.98,3.57-2.38,5.5-2.17-2.18,3.89,2.1,3.7,3.5,5.12-.89,2.89-5.16,.71-5.41,4.09-3.26-.68-3.24-6.54-7.9-5.02-1.17-.19-2.31-.58-2.78-1.74-1.78-4.43-3.48-8.89-5.2-13.34,.7,.37,1.47,.65,2.09,1.12,1.64,1.26,3.02,1.12,4.04-.7,.91-1.63,1.64-4.37,0-4.84-5.65-1.63-3.92-5.92-4.21-9.57,0,0,.04-.04,.04-.04,2.76-.4,1.97-2.59,1.94-4.19-.06-2.98,1.16-4.91,4.01-5.78,.25,2.46-.47,5.06,1.09,8.56,1.15-3.69,1.79-6.17-.08-8.65,.34-1.3,.67-2.6,1.01-3.9,0,0,.02-.02,.02-.02,2.6-2.46,5.96-1.49,8.99-2Z" fill="#f6cfba"/><path d="M134.06,152.95c.09-.99,.18-1.99,.26-2.98,.74-.06,1.33-.35,1.61-1.09,4.14,.06,8.33-.21,12.18,1.83,4.21,2.99,5.5,6.62,3.38,11.65-.91,2.16-.46,4.89-.63,7.36-.43,.19-.86,.39-1.29,.58,.42,.22,.83,.44,1.25,.66-.02,.89-.04,1.79-.06,2.68-1.65,.56-3.31,1.12-4.97,1.68-3.81-5.44-7.61-10.88-11.42-16.32,.15-1.05,.29-2.1,.44-3.15-.19-.4-.37-.8-.56-1.2-.06-.57-.13-1.13-.19-1.7Z" fill="#406431"/><path d="M219.86,145.88c-1-.37-1.99-.74-2.99-1.11-.34-5.26-.21-10.17,5.87-12.6,1.28-.51,2.16-2.47,2.79-3.95,.4-.94-.55-3.01-1.34-2.33-1.65,1.41-4.35-.04-5.26,2.13-2.09,4.95-5.96,4.61-10.12,3.7,5.01-1.84,8.19-5.54,10.79-10.47-2.87-.45-5.77-1.53-7.81,.32-3.27,2.97-6.96,3.35-10.96,3.25-1.3-.67-2.59-1.34-3.89-2.01,.55-3.17,3.13-1.56,4.82-2.05,1.67,3.24,3.38,2.14,5.24,.13,2.41-2.6,5.04-4.77,8.94-2.94-.74,1.52-.13,2.23,1.38,1.79,2.27-.67,4.73-.94,6.56-2.69,.98-.12,1.95-.25,2.93-.37,4.71,.2,2.62,3.79,3.07,6.12,0,0,0,0,0,0-1.07,.12-1.84,.55-1.92,1.77-.09,1.38,.52,2.15,1.91,2.28,1.01,3.66,4.45,7.79-1.98,9.97-5.56,.63-5.99,1.27-6,8.95-.67,.03-1.35,.06-2.02,.09Z" fill="#f6bc96"/><path d="M157.87,183.79c.21-.95,.13-2.5,.68-2.77,3.86-1.9,4.42-5.83,6.09-9.36-1.84-.86-2.95,2.39-4.84,.73-1.28-2.31,4.35-1.74,2.16-4.58,0-.31-.01-.63-.02-.94,1.85-1.8,4.88-1.86,6.42-5.55,.99,5.2-2.43,8.56-1.44,12.45,0,0-.03,.08-.03,.08-2.23,2.46-2.92,5.48-2.95,8.66-.02,2.17-.24,4.03-2.94,4.29-.31-.09-.62-.16-.94-.2-.17-1.31-.12-2.78-2.09-2.72l-.11-.09Z" fill="#dbd3c9"/><path d="M145.8,175.32c1.66-.56,3.31-1.12,4.97-1.68-.14,3.78,4.24,5.51,4.2,9.25-1-.03-2-.06-3-.09-1.23-2.78-3.16-4.86-6.04-5.97-.04-.5-.08-1.01-.12-1.51Z" fill="#849679"/><path d="M188.1,166.86c-.11-.68-.22-1.35-.32-2.03,2.17-2.12,3.39,.37,4.99,1.02,.18,1.38,.85,2.43,2.1,3.08-3.43,3.17-5.14,.66-6.77-2.06Z" fill="#66835f"/><path d="M151.97,182.8c1,.03,2,.06,3,.09,.74,1.04,1.83,.93,2.9,.9,0,0,.11,.09,.1,.09,0,.93,0,1.86,0,2.79-.7,.05-1.4,.09-2.1,.14-1.63-1.02-3.03-2.26-3.9-4Z" fill="#b7a98e"/><path d="M161.94,166.86c0,.31,.01,.63,.02,.94-.79,1.12-1.89,1.16-3.01,.71-.22-.09-.4-1-.25-1.14,.94-.85,2.14-.46,3.25-.51Z" fill="#d4c6b6"/><path d="M150.82,170.96c-.42-.22-.83-.44-1.25-.66,.43-.19,.86-.39,1.29-.58-.02,.41-.03,.82-.05,1.24Z" fill="#849679"/><path d="M225.9,218.78c-1.5,2.46-2.56,5.02-2,7.99-.32,1.83-.61,3.69-2.92,4.09-6.45-.53-.82-4.53-1.72-6.82-3.21,.92-6.29,.74-9.37,.71,.91-5.29,1.13-10.37-4.01-13.91,1.52-1.57,1.05-2.51-2.01-4.01-1.87-1.2-.09-3.83-1.98-5.02,.01-.66,.03-1.33,.04-1.99,0-.34,0-.68-.01-1.03-.58-5.13-4.9-8.5-8.18-5.6-3.12,2.76-7.66,4.54-9.37,8.95,1.63,.98,3.13,.56,4.59,.59,2.74,.62,5.36,1.46,7,4-.36,2.64-2.46,1.87-4.06,2.06-.32-.03-.64-.05-.97-.05-.34-.32-.67-.65-1.01-.97-.02-.31-.05-.62-.09-.92-.65-3.18-3.44-2.59-4.34-1.29-1.72,2.48-3.65,3.45-6.46,3.47-.89,0-1.48,1.76-2.48,.94-1.06-.87-.57-2.08,.2-3.07,1.27-1.63,.15-1.83-1.17-2.09-3.71-.72-6.58,1.35-9.51,2.97-1.06,.59-2,1.01-3.17,1,.25-2.02-3.11-4.64,1-6.02,.19,1.03,.49,2.18,1.83,1.42,1.31-.74,2.51-1.44,4.11-1.43,3.75,0,8.33,1.08,7.82-5.32-.04-.53,.49-1.38,.98-1.65,5.07-2.7,9.39-7.09,15.71-7.02,1.41,.01,3.14,.45,3.49-1.75,4.34,.96,8.68,1.92,13.01,2.88,0,.3,.01,.6,.05,.9-2.72,0-5.43,0-8.78,0,2.5,4.38,5.9,5.5,9.68,6,1.38,.18,3.2-.6,3.85,1.34,.56,1.66-.31,2.85-1.78,3.65-1.24,.68-2.23,1.61-1.71,3.17,.59,1.77,2.16,1.71,3.68,1.84,7.94,.7,8.01,.8,8.07,8.96-.03,1.44-.1,2.9,1.94,2.99h0Z" fill="#f7e1d8"/><path d="M201.37,176.81c-.4,.03-.81,.05-1.21,.08-7.01-3.01-11.59,1.01-11.17,9.81-.71-.07-1.43-.14-2.14-.21,.04-3.76,.17-7.54-2.11-10.86,1.12-2.92,2.23-5.84,3.35-8.76,1.64,2.73,3.34,5.24,6.77,2.06,3.12,1.85,5.23,4.51,6.5,7.88Z" fill="#849679"/><path d="M229.87,126.87c-1.39-.13-2-.9-1.91-2.28,.08-1.22,.85-1.65,1.92-1.77,0,1.35,0,2.7-.01,4.04Z" fill="#f6cfba"/><path d="M41.61,12.96c-.16,1.12-.32,2.25-.49,3.37-1.12-.05-2.25-.1-3.37-.15-.26-.08-.51-.17-.75-.28-.49-2.5,1.66-3.42,2.9-4.87,.56,.49,1.12,.97,1.67,1.46,0,0,.03,.47,.03,.47Z" fill="#849679"/><path d="M39.91,11.03c-1.25,1.46-3.4,2.38-2.9,4.87-.34,0-.68,.02-1.02,.03-3.34-2.12-2.28-6.16-3.93-9.02,1.87-.75,5.14-.1,3.94-3.93,2.82,1.95,3.47,4.94,3.91,8.04Z" fill="#cab9a2"/><path d="M65.63,185.1c-5.23-.74-8.99-3.73-12.04-7.83,1.22-3.25,4.72-3.77,6.97-5.79,2.59-2.34,4.45-2.46,4.39,2.42,.94-2.54,3.81-4.78-1.32-5.24-3.68-.33-4.79-3.95-3.37-6.34,1.89-3.18,3.06-7.69,7.92-8.24,.37,3.57,1.25,7.09-.13,10.73-.52,1.36-.69,3.76,1.77,3.85,6.72,.22,13.45,.16,20.17,.2-.42,4.21,2.44,1.75,3.99,1.96,6.82,2.03,7.09,2.4,4.65,6.43,4.72,2.48,6.94-2.32,10.38-3.54,5.65,4.46,8.83,10.79,12.96,17.83,1.63-7.41,4.64-13.19,8.44-18.58,1.12-.79,2.24-1.57,3.35-2.36,1.31,2.34,2.85,4.59,3.88,7.05,2.14,5.13,4.17,3.22,6.34,.13,.32,.02,.64,.03,.96,.04,1.02,1.86,2.04,3.71,3.06,5.57-2.19,3.57-.82,7.25,.47,10.44,.66,1.64,3.57-.6,5.48,0,.08,.69,.15,1.38,.23,2.07-.17,.23-.28,.49-.33,.77-3.64,.04-7.29,.08-10.93,.12-.36-.4-.71-.8-1.07-1.21-.25-3.07,1.61-5.65,1.96-8.57,.13-1.07,.37-2.39-1.08-2.95-.82-.32-1.72-.25-2.3,.38-3.8,4.13-6.82,8.74-8.42,14.19-.38,.26-.75,.52-1.13,.77q-9.94,.61-9.73,8.34c-.75,.42-1.5,.83-2.25,1.25-.66-.11-1.31-.21-1.97-.32-5.3-2.05-10.61-4.07-14.96-7.92-.54-1.4-2.3-2.14-2.11-3.93,5.87,.93,5.22-4.18,5.64-7.05,.47-3.18-2.82-4.47-5.53-3.84-2.04,.48-1.78-.42-2.05-1.51-.44-1.79-1.41-4.03-2.98-4.06-2.13-.03-3.57,1.97-4.02,4.26l-.17,.08c-1.32-.14-2.85,.54-3.82-.98,.04-1.88-.26-3.57,.54-5.63,2.48-6.32,1.62-7.25-4.95-7.24-1.66,0-3.32,.07-4.97-.05-4.47-.32-7.22,1.93-7.34,6.15-.11,3.81-1.76,6.16-4.61,8.12Zm39.5-.03c-.14,.04-.31,.06-.42,.14-.04,.03,.06,.23,.09,.36,.14-.04,.31-.06,.42-.14,.04-.03-.06-.23-.09-.35Z" fill="#66835f"/><path d="M56.12,221.73c-3.22-12.42,2.02-22.28,9.59-31.41,.47-.57,1.46-.7,2.21-1.04-1.39,3.31-2.25,6.94-4.83,9.59-.96,.99-.31,1.75-.44,2.63-.36,2.54,1.04,5.16-.58,7.7-.51,.79-.52,2.47,.67,3.15,1.51,.86,2.59-.18,3.16-1.46,1.2-2.67,4.41-1.95,6.27-3.88-1.97-.16-3.75-.3-5.63-.45,2.02-5.31,6.56-5.8,10.98-6.49,2.26-.35,2.99,1.16,2.11,2.64-4.22,7.05-6.31,15.08-10.42,22.17-1.22,2.1-1.77,4.75-4.91,4.93-1.74,.1-2.11-1.07-2.64-2.38-1.41-3.43,1.91-4.08,3.31-6.07-.64-1.3-2.45,.16-3.2-1.22,2.17-1.42,4.48-2.7,6.17-4.77-5.3-.94-7.09-.25-9.67,4.03-.59,.97-.62,2.29-2.16,2.33Z" fill="#66835f"/><path d="M65.63,185.1c2.86-1.96,4.5-4.31,4.61-8.12,.12-4.22,2.87-6.47,7.34-6.15,1.65,.12,3.32,.05,4.97,.05,6.57,0,7.43,.92,4.95,7.24-.81,2.06-.5,3.75-.54,5.63-1.73,1.6-3.43,3.26-5.93,3.58-3.62-2.89-7.44-.89-11.19-.44-1.4-.6-2.81-1.19-4.21-1.79Z" fill="#406431"/><path d="M86.01,186.81c.32,1.06,.64,2.11,.97,3.17,.25,4.06,2.57,6.16,6.45,6.77,5.29,.75,2.94,5.28,4,8.11-.38,1.05-.76,2.11-1.13,3.16-.49-2.46-2.51-2.02-4.22-2.34-1.5-.28-2.08-1.47-2.03-2.92,.02-.8,.08-1.66,1.32-1.5,2.29,.28,2.51-.21,1.02-2.08-1.29-1.62-2.77-1.38-4.37-1.34-.79-1.27-3.55-1.04-2.35-3.94,1-2.41-2.34-1.54-3.43-3.27,2.68,0,2.33-2.64,3.78-3.82Z" fill="#66835f"/><path d="M88,197.85c1.6-.04,3.08-.28,4.37,1.34,1.49,1.88,1.27,2.37-1.02,2.08-1.25-.15-1.3,.7-1.32,1.5-.04,1.44,.53,2.64,2.03,2.92,1.7,.32,3.73-.12,4.22,2.34-.04,.93-.08,1.87-.11,2.8-.17,.27-.3,.56-.4,.86-2.06-2.43-5.76-2.33-7.67-5-1.91-2.93-4.11-5.85-.1-8.84Z" fill="#406431"/><path d="M69.84,186.9c3.75-.44,7.57-2.45,11.19,.44-.9,8.38-6.94,4.03-11.05,4.47h0c-.14-1.15-.29-2.29-.43-3.43,.1-.5,.2-.99,.3-1.48Z" fill="#66835f"/><path d="M67.61,198.8c3.85-3.57,7.93-5.28,12.68-4.71,.78,.09,1.72-.39,2.23,.43,.66,1.05-.15,1.73-.8,2.53-1.32,1.65-3.02,1.8-4.9,1.76-3.07-.06-6.14-.02-9.21-.02Z" fill="#66835f"/><path d="M84.11,210.79c-.07,3.03-2.42,5.14-3.2,7.88-1.58-.55-4.17,2.1-4.8-1.43-.69-3.92,3.25-4.33,5.09-6.32,.47-.51,1.91-.12,2.91-.14Z" fill="#d4c6b6"/><path d="M69.98,191.81c-.08,.14-.15,.28-.23,.42,.07-.14,.15-.29,.22-.43,0,0,0,0,0,0Z" fill="#66835f"/><path d="M68.19,154.09c-4.86,.55-6.03,5.06-7.92,8.24-1.42,2.39-.31,6.01,3.37,6.34,5.12,.45,2.25,2.69,1.32,5.24,.06-4.89-1.8-4.76-4.39-2.42-2.25,2.03-5.75,2.54-6.97,5.79-1.75-.82-3.24-1.97-4.44-3.49-.19-.69-.38-1.37-.57-2.06,1.21-1.66,2.41-3.31,3.61-4.97,.93,.02,1.86,.04,2.79,.06,.14,.08,.28,.16,.42,.24-.14-.08-.28-.16-.42-.24,.34-1.26,.67-2.52,1.01-3.79,.73-6,4.89-8.55,10.1-10.04,1.99,.06,3.99,.12,5.98,.18-1.09,1.18-2.59,.58-3.88,.92Z" fill="#849679"/><path d="M49.98,210.79c-.13,.72-.1,1.58-1.2,1.51-.11,0-.3-.2-.31-.31-.07-1.1,.79-1.07,1.51-1.2h0Z" fill="#e1dbd5"/><path d="M96.95,212.77c-.25,.07-.5,.12-.75,.16-.14-.41-.29-.82-.44-1.24,.1-.3,.23-.59,.4-.86,.26,.65,.52,1.3,.78,1.94Z" fill="#b7a98e"/><path d="M147.98,235.81c.99-.34,1.98-.68,2.97-1.02,2.01-.06,3.99-.24,4.15,2.72,.07,1.28,.72,2.59,1.97,3.22,4.96,2.48,3.66,4.78-.14,7.06-2.17-.14-1.62-4.83-4.98-2.99-6.07-.9-3.37-5.67-3.97-8.99Z" fill="#f6cfba"/><path d="M151.95,244.8c3.36-1.84,2.81,2.84,4.98,2.99,1.04,2.04,4.72-.36,4.99,2.97-.64,.02-1.28,.04-1.92,.07-4.34,.21-8.74,.5-8.05-6.02Z" fill="#eeede8"/><path d="M148.94,258.77c.02-.98,.04-1.96,.05-2.94,1.45,.02,3.04-.43,4.16,.91,1.18,1.4,.96,3.11,.61,4.71-.33,1.49-1.7,1.32-2.82,1.32-3.3,.01-.12-3.27-2-3.99Z" fill="#f6cfba"/><path d="M80.03,84.9c0,1.31,0,2.62,0,3.93-.12,1.35,1.13,1.92,1.62,2.91,.36,.73,.45,1.64-.21,2.29-.61,.6-1.1-.11-1.68-.3-6.58-2.11-8.98,.43-7.63,8.01-.55,3.64-2.82,.71-4.22,1.1-6.87,2.4-13.95,.56-20.92,1.01-2.33-1.35-4.65-2.7-6.98-4.05-1.11-1.52-4.72-.47-3.98-3.89,.75-.21,1.86-.2,2.18-.69,.44-.68-.2-1.86-.92-1.95-2.08-.24-3.32-2.05-5.24-2.49,.31-2.44,2.23-1.76,3.72-1.92,1.62-.18,3.73,.71,4.28-1.89,1.64-.71,3.28-1.42,4.92-2.13,1.09,.13,2.73-.23,2.8,1.31,.13,3,2.61,2.46,4.24,3.19,1.44,.64,2.84,.06,3.37-1.16,.55-1.26-1.07-1.86-1.78-2.67-.99-1.12-3.55-.21-3.59-2.68,3.46-.01,7.05,.28,8.79-4.2-5.01,.22-10.22,1.86-13.73-3.13-2-2.85-4.43-3.52-7.62-2.03-1,.46-2.27,.31-3.42,.45-.01-.68-.02-1.35-.03-2.03,1.54-.26,3.71,.73,3.98-2.03h0c4.89-1.57,3.42-4.77,2.02-7.94,.91,.26,1.83,.53,2.74,.79,1.27,2.84,2.94,5.57,3.17,8.76,.18,2.56,1.63,3.26,3.9,3.49,7.45,.76,13.31-2.65,18.72-7.11,2.91-2.4,4.17-5.43,2.45-9.16,.66-5.95-1.45-11.01-5.18-15.44-2.71-3.2-5.77-3.56-8.86-.35-1.12-.64-2.48-.95-2.98-2.4-.86-2.52-2.95-1.61-4.6-1.45-2.12,.21-3.01,2.71-2.52,3.64,2.24,4.27-.7,8.11-.64,12.17,.03,2.26,2.55,6.94-3.24,6.95-1.48-1.31,4.69-7.08-2.84-4.86l-1.19-2.18c-.41-1.67-.83-3.35-1.3-5.24-2.54,1.77-2.37,3.57-.55,5.53,1.34,2.4-1.6,4.17-.96,6.47-.05,.16-.11,.32-.17,.48-.47-2.96-5.54-2.54-4.82-6.05,.88-4.24-.01-8.86,2.73-12.75,.66-.94,.62-2.43,2.24-1.1,1.16,.94,2.48,1.28,3.47,0,.74-.96,.61-2.21-.41-3.12-.94-.84-.88-2.38-.01-2.38,5.28-.04,4.32-6.11,7.8-7.75,3.01,2.28,7.42,1.11,10.13,4.15,2.06,2.3,4.36,2.61,6.96,.83,2.21-1.5,3.52-1.14,3.96,1.79,.6,3.93,3.45,6.54,6.02,9.27,0,2.65,0,5.31,0,7.96-.02,2-.03,3.99-.07,5.99-.03,1.56,.16,2.97,1.77,3.8,5.12,2.62,4.89,3.16,1.22,7.93-2.79,3.62-7.31,4.76-10.05,8.21-.8,.17-1.84,.09-2.35,.57-1.14,1.07-3,1.92-2.42,3.97,.66,2.34,2.71,1.23,4.21,1.5,2.85,.51,4.98-1.65,7.6-2.01,1.08,.03,1.67-1.01,2.46-1.25,1.73-.54,3.72-2.73,5-1.65,2.03,1.72-1.56,3.07-1.37,4.98Z" fill="#f6bc96"/><path d="M66.91,78.79c2.74-3.46,7.26-4.59,10.05-8.21,3.67-4.77,3.9-5.31-1.22-7.93-1.61-.82-1.8-2.23-1.77-3.8,.04-1.99,.05-3.99,.07-5.99,1.45,1.34,1.9,3.04,1.92,4.95,.01,1.32-.11,2.83,1.83,2.94,1.86,.11,1.87-1.25,2.2-2.63,1.04-4.26,2.3-8.46,3.51-12.79,4.4,4.44,5.25,9.08,2.89,14.16-1.29,2.78-1.63,5.49,1.56,7.38,1.71,6.47-3.9,11.07-4.42,17.03-.12,1.35-2.24,.85-3.5,.99-.19-1.91,3.4-3.26,1.37-4.98-1.28-1.08-3.26,1.1-5,1.65-.79,.25-1.39,1.28-2.46,1.25,.58-6.44-3.94-3.99-7.03-4.04Z" fill="#f6cfba"/><path d="M34,71.9c.01,.68,.02,1.35,.03,2.03-1.3,0-2.67-.13-3.52,1.18-.44,.68-.19,1.4,.43,1.63,3.77,1.41,6.65,5.77,11.57,3.48,1.22-.57,2.56-.5,3.71,.4-6.6,4.77-12.4,.78-18.33-1.68-.77-4.27-5.13-4.04-7.71-6.04-2.27-1.76-3.44-2.9,.19-4.06,1.75-.56,1.53-1.78,1.43-3.16-.38-5.32,2.83-7.61,8.24-5.93-1.47,.48-3.78-.62-4.04,2.15-.72,.28-.79,.61-.08,1.01,0,.66,0,1.31,0,1.97-1.55,2.01-1.56,4.1,.53,5.51,1.41,.95,3.28,1.01,3.45-1.61,.21-3.06,4.85-1.57,4.91-4.78,.82-.4,1.11-1.11,1.15-1.96,.06-.16,.11-.32,.17-.48,2.01,2.46,2.22,5.33,1.85,8.31,0,0,0,0,0,0-.97-.03-1.96,.08-2.9-.1-3.02-.58-2.2,.68-1.07,2.13Z" fill="#f6cfba"/><path d="M74.03,44.9c-2.57-2.73-5.42-5.34-6.02-9.27-.44-2.93-1.75-3.29-3.96-1.79-2.6,1.77-4.91,1.47-6.96-.83-2.71-3.04-7.12-1.87-10.13-4.15,1.37-3.4,6.35-1.03,7.69-4.74,.11-.3,2.29,.44,2.87,1.45,2.54,4.45,6.35,5.3,11.11,4.66,2.84-.38,5.48,.95,7.78,2.68,.39,.29,1.01,.97,.94,1.07-2.26,3.3-1.07,7.63-3.31,10.91Z" fill="#f6cfba"/><path d="M26.01,61.89c.25-2.77,2.56-1.67,4.04-2.15,1.59,1.41,3.18,2.83,4.76,4.24-.06,3.21-4.71,1.72-4.91,4.78-2.41-.19-3.96-1.27-3.98-3.9,0-.66,0-1.31,0-1.97,.03-.34,.06-.67,.08-1.01Z" fill="#f48a5a"/><path d="M38.06,18.86c-.1-.89-.2-1.79-.31-2.68,1.12,.05,2.25,.1,3.37,.15,0,0-.1,.05-.1,.05,.08,.58,.16,1.17,.24,1.75,.32-.45,.65-.89,.97-1.34,2.09,.05,1.39,3.34,3.67,3.16-.33,3.17-2.77,2.8-4.91,2.95-.09-2-1.47-3.06-2.94-4.05Z" fill="#b7a98e"/><path d="M36.03,95.93c-2.29-.67-4.59-1.33-7.02-1.09-.58-1.35-1.83-2.69-.01-4.05,1.02,0,2.03,0,3.05,0,1.92,.43,3.16,2.25,5.24,2.49,.72,.08,1.36,1.27,.92,1.95-.32,.49-1.42,.48-2.18,.69Z" fill="#f7e1d8"/><path d="M32.05,90.81c-1.02,0-2.03,0-3.05,0,0-.97,0-1.94,0-2.91,3.65-.75,7.31-1.38,11.07-.9-.55,2.6-2.66,1.72-4.28,1.89-1.5,.16-3.41-.52-3.72,1.92Z" fill="#f6cfba"/><path d="M52.19,166.76c-1.2,1.66-2.41,3.31-3.61,4.97-1.34-.9-2.88-1.42-3.72-3.06-.79-1.56-.52-2.8,.29-4.13,.86-1.39,1.73-1.64,3.16-.52,1.5,1.17,1.97-1.41,3.32-1.25,.19,1.33,.37,2.66,.56,4Z" fill="#dbd3c9"/><path d="M52.19,166.76c-.19-1.33-.37-2.66-.56-4,1.5-.61,2.94-.41,4.36,.27-.34,1.26-.67,2.53-1.01,3.79h0c-.93-.02-1.86-.04-2.79-.06Z" fill="#66835f"/><path d="M189.85,206.86c.05,.31,.08,.61,.09,.92,.34,.32,.67,.65,1.01,.97,.32,0,.65,.03,.97,.05-.14,2.71,1.18,4.27,3.75,5.04,3.52,1.06,4.27,3.04,1.67,5.9-.87,.96-1.74,1.92-2.6,2.89,0-1.14-.48-1.86-1.71-1.88-4.89-.09-2.51,3.88-3.37,6.04-3.18-5.97-2.67-7.48,3.25-9.67-5.42-2.43-6.86-1.6-6.97,4.03-.04,1.98,.2,3.99-.06,5.94-.65,4.87,.99,7.96,6.12,8.67,1.28-.02,2.55-.03,3.83-.05,5.04,3.45,9.55,.54,14.12-1.23,.87-.34,1-1.27,.62-2.1-.58-1.24-1.58-1.82-2.74-.88-1.57,1.27-3.27,1.34-5.11,1.09,.82-2.41,1.65-4.81-2.6-3.85-.81,.18-1.64-.06-2.2-.81,.48-1.79-1.37-4.48,2.01-5.13,.53,1.23-2.33,3.35,.95,3.8,1.05,.14,2.78,.51,2.75-1.13-.03-1.96-1.3-3.33-3.5-3.43-.36-1.57,.38-2.55,1.72-3.21,.66,.03,1.31,.06,1.97,.09l.13,1.85c-.11,1.32,.49,2.02,1.82,2.09,.06,.65,.12,1.29,.18,1.94-.05,.83,.07,1.58,.94,1.97l.49,.03s.49-.04,.49-.04c.34,.01,.68,.02,1.02,.03,.66,0,1.32,0,1.97,0,5.71,.03,5.7,.2,3.52,5.36-.94,2.23-2.41,4.51-1.77,7.91,3.36-3.1,7.45-4.61,8.34-9.19,2.31-.41,2.6-2.27,2.92-4.09,4.8,3.29,4.3,6.3,2.38,11.02-2.76,6.8-7.91,11.13-12.54,16.15-1.61,1.75-3.19,3.4-5.88,2.78,.6-3.66,4.34-4.68,6.11-7.34,.77-1.17,2.24-2.63,1.27-3.93-1.04-1.41-3.05-.59-4.63-.56-1.5,.03-1.55,1.44-2.03,2.44-.76,1.55-.53,3.7-2.65,4.43,.15-2.35-1.04-3.08-3.26-2.99-2.91,.12-5.82,.01-8.73,0,2.26-3.37,7.2-.61,9.58-4-1.27-1.52-2.92-2.55-4.39-1.61-4.7,3-8.95,2.35-13.21-.78-1.37-1-2.62-.04-3.48,.92-1.07,1.2-.03,1.98,.89,2.8,1.99,1.79,4,3.48,6.76,3.92-3.08,.51-6.76,3.28-8.26-2.19l-.9-.98-.06-.02c-.17-3.12-3.18-1.37-4.46-2.59-.79-.75-1.64-2-2.78-.83-1.02,1.04-.81,2.36,.35,3.38-.01,.66-.03,1.32-.04,1.98-2.42,.1-4.97-.42-6.9,1.51-.4-.36-.85-.59-.83-.77,.92-7.79-2.46-15.1-2.45-22.88,0-5.09,2.44-9.44,2.57-14.4,.06-2.24,2.54-3.69,5.28-3.4,1.62,.17,2.89,.95,1.85,2.49-2.77,4.09-.63,9.46-4.08,13.58-1.16,1.38,.38,5.02,.68,7.63-2.67,2.31-3.18,8.61-.87,10.92,.58,.58,1.17,1.3,2.12,.89,.92-.4,.75-1.34,.89-2.14,.58-3.44-.98-6.42-2-9.51,1.45,0,3.17,.49,3.88-1.32,3.09-7.91,8.88-14.36,11.96-22.25,.78-2,2.1-2.3,3.85-2.25Zm-5.73,25.26c-.66-4.05,.55-8.04-1.04-12.32-4.65,8.56-4.52,10.22,1.04,12.32Zm5.99,4.75c-1.13-.04-1.97,.37-2.1,1.58-.15,1.38,.43,2.24,1.93,2.22,1.18-.01,1.83-.62,1.86-1.81,.03-1.15-.46-1.9-1.69-1.99Z" fill="#f6bc96"/><path d="M193.92,248.77c2.91,0,5.83,.11,8.73,0,2.21-.09,3.41,.64,3.26,2.99h0c-1.33,1-2.67,1.98-4,2.97-1.88-2.34-3.87-3.37-7.15-2.25-2.22,.76-4.65,1.57-6.87,1.89-3.88,.56-3.65,1.81-1.91,4.31-2.05,1.16-3.97-4.04-6.07-.12-.65,.04-1.3,.07-1.94,.11-.37-.32-.69-.74-1.11-.94-5.99-2.81-6.03-2.94-2.93-8.98,.01-.66,.03-1.32,.04-1.98,2.3,.02,4.6,.03,6.89,.05,0,0,.06,.02,.06,.02,.3,.33,.6,.65,.9,.98,1.5,5.47,5.18,2.69,8.26,2.19,1.43,.04,2.74-.32,3.85-1.25Z" fill="#f7e1d8"/><path d="M161.92,250.76c-.26-3.34-3.95-.93-4.99-2.97,3.79-2.28,5.1-4.57,.14-7.06-1.25-.63-1.91-1.94-1.97-3.22-.16-2.96-2.14-2.78-4.15-2.72-.23-.78-.35-1.61-.7-2.33-2.88-5.76-.97-9.01,5.72-9.65-.7,3.02-2.22,6.07,.34,8.97,.8,.91,.43,3.04,2.34,2.71,1.83-.32,1.11-2.1,1.36-3.31,.12-.61,.33-1.2,.76-2.76,2.1,4.45,.69,8.51,1.99,12.18,.79,2.23,.12,4.91,1,7.34,.5,1.4,.01,2.66-1.81,2.81Z" fill="#f7e1d8"/><path d="M155.92,210.78c-2.18,.37-4.11-.7-6.16-1.08-.22-3.33,2.75-5.54,3.05-8.68,.71-1.36,1.3-2.74,1.05-4.33,.05-.28,.16-.54,.33-.77,.92-.04,1.84-.08,2.76-.13,1.09,.16,2.3-.16,3.17,.83-1.97,2.36-.31,3.45,1.63,4.09,1.18,.39,2.1,.68,2.17,2.07-4.11,1.38-.75,4-1,6.02-.99,0-1.98,.01-2.97,.02-.49-1.53,1.13-4.28-1.32-4.43-2.06-.12-2.81,2.3-2.7,4.44,.02,.32,0,.65,0,.97,0,.33,0,.66,0,.99h0Z" fill="#e1dbd5"/><path d="M185.96,258.68c-1.74-2.5-1.97-3.75,1.91-4.31,2.22-.32,4.65-1.13,6.87-1.89,3.28-1.12,5.27-.09,7.15,2.25-.65,.69-1.3,1.38-1.96,2.07-2.05,.18-4.25-.74-6.11,.82,0,0,0,.08,0,.08-.35,.25-.7,.51-1.06,.76-.95,.1-1.9,.19-2.85,.29-1.32-.03-2.64-.05-3.96-.08Z" fill="#eeede8"/><path d="M155.93,209.79c0-.32,.02-.65,0-.97-.12-2.14,.64-4.56,2.7-4.44,2.45,.15,.84,2.9,1.32,4.43,.39,2.84-.14,5.6,1.07,8.6,.86,2.13-2.32,4.47-5.06,5.39-1.04-4.01-.04-8.02-.05-12.03,0,0,0,0,0,0,.71-.33,.68-.66,0-.99Z" fill="#f7e1d8"/><path d="M189.92,258.76c.95-.1,1.9-.19,2.85-.29,.35-.25,.7-.51,1.06-.76,0,0,0-.08,0-.08,3.82,1.33,1.38,4.64,2.19,6.92-1.31,.09-2.63,.17-3.94,.26-3.33-.59-7.76,1.8-9.47-3.53,2.24-1.5,5.79,.81,7.3-2.52Z" fill="#f6bc96"/><path d="M177.95,258.67c.65-.03,1.3-.07,1.94-.11,.19,1.1,1.81,2.64-.53,3.08-3.69,.7-7.4,1.57-11.21,1.08-1.97-.25-3.83-1.52-3.61-3.28,.27-2.24,2.34-1.23,3.97-1.08,3.12,.3,6.26,1.19,9.43,.31Z" fill="#f6bc96"/><path d="M168.88,276.66c-2.34-.25-3.4-3.07-5.93-2.94,0-.33,0-.66-.02-.99,.95-3.2,3.19-2.03,5.08-1.35,3.29,1.17,.99,3.44,.87,5.28Z" fill="#f7e1d8"/><path d="M205.91,251.76c2.12-.74,1.9-2.88,2.65-4.43,.48-.99,.53-2.4,2.03-2.44,1.59-.03,3.6-.85,4.63,.56,.97,1.31-.5,2.77-1.27,3.93-1.76,2.66-5.51,3.69-6.11,7.34-.31,.02-.62,.04-.93,.06-1.27-.27-3.82,.45-1.71-2.37,.5-.67,.47-1.75,.68-2.65,0,0,0,0,0,0Z" fill="#f48a5a"/><path d="M205.91,251.77c-.21,.89-.18,1.97-.68,2.65-2.11,2.82,.44,2.1,1.71,2.37-2.6,2.79-4.43,2.79-6.99,.02,.65-.69,1.3-1.38,1.96-2.07,1.33-.99,2.67-1.98,4-2.97Z" fill="#f6bc96"/><path d="M228.89,216.75c-.32,.67-.64,1.33-.97,2-.67,.01-1.35,.02-2.02,.03,0,0,0-.01,0-.01,0-.67,.01-1.34,.02-2.01,.99,0,1.99,0,2.98-.01Z" fill="#f7e1d8"/><path d="M141.1,96.75c-.2,1.38-1.28,2.28-1.89,3.41-1.25,2.32-4.3,4.81,.03,7.26,.95,.54,.93,2.04,.3,2.7-4.49,4.79-4.89,11.69-8.76,16.75-1.74,2.28-3.99,3.82-7.13,2.64,1.5-2.45,1.12-5.27,1.57-7.93,.58-3.57,2.57-5.86,5.65-7.87,2.76-1.81,4.78-4.74,1.07-7.93-1.15-.99-1.86-2.25-2-3.79-.03-.66-.05-1.32-.08-1.97,3.74-1.16-.82-2.31,0-3.47,3.39,.69,6.71,.18,10.03-.51,.38,.24,.76,.49,1.13,.73h.08Z" fill="#849679"/><path d="M128.09,75.94c1.66-.27,2.97,.58,4.3,1.37-.84,2.38-1.13,5.2-4.47,5.56-2.07-.12-3.77,.29-3.98,2.81-.68,.02-1.36,.03-2.03,.05-1.63-2.52,.91-5.06-.06-7.58,1.96-1.08,4.5-.51,6.24-2.2Z" fill="#849679"/><path d="M129.86,100.01c.03,.66,.05,1.32,.08,1.97-.65-.03-1.31-.06-1.96-.09-.34,.33-.67,.67-1.01,1l-1.04,.95s.04,.03,.04,.03c-.2-2.76,.21-5.44,.99-8.08,.3,.02,.6,.1,.87,.23-.19,1.77,.56,3.06,2.03,3.98Z" fill="#66835f"/><path d="M129.86,100.01c-1.47-.92-2.22-2.21-2.03-3.98,.75-.09,1.48-.16,2.03,.52-.82,1.15,3.75,2.31,0,3.46Z" fill="#b7a98e"/><path d="M141.02,96.76c-.38-.24-.76-.49-1.13-.73,.38,.25,.76,.49,1.13,.73Z" fill="#b7a98e"/><path d="M127.01,95.89c-.35-.32-.7-.63-1.05-.95,.35,.32,.7,.63,1.05,.95Z" fill="#66835f"/><path d="M89.38,87.02c3.5-1.37,7.13-2.47,10.45-4.18,3.38-1.74,7.04,1.23,10.86-1.68,1.61-1.23,5.67,3.76,6.43,7.73-2.72,.57-6.56-1.74-7.94,.64-1.41,2.44-3.37,3.06-5.26,4.28-3.48,3.38-8.62,4.31-11.87,8.03,4.94,7.62,9.87,15.24,14.81,22.87-.63,.05-1.25,.09-1.88,.14-.15-.07-.31-.14-.46-.21,.14,.08,.28,.16,.43,.24-.04,1.28-.08,2.55-.13,3.82-.63-.22-1.26-.44-1.89-.66-.93-1.78-2.6-1.05-4.02-1.17,.14-1.44,.29-2.88,.43-4.32,2.18-3.22-2.83-11.56-7.53-12.53-2.66-5.41-6.12-9.11-12.77-6-1.01-.45-2.71,.21-2.79-1.74,4.89-1.79,7.3-5.4,7.71-10.48,1.72-1.53,3.43-3.05,5.15-4.58l.26-.19Z" fill="#406431"/><path d="M125.22,121.58c-.45,2.66-.07,5.48-1.57,7.93-.26,.07-.49,.19-.7,.35-.64-.05-1.28-.1-1.92-.15-.64-1.35-1.64-2.02-3.17-1.7l-.07-.1c-.29-.31-.58-.63-.87-.94-.74-1.39-1.49-2.77-2.23-4.16-.47-3.33-.32-6.77-1.77-9.92-.06-2.2-1-4.11-1.98-6.01-.14-5.57,4.14-4.04,7.2-4.47,1.87,.61,3.74,1.22,5.62,1.82,.26,1.08,.47,2.19,1.76,2.56-.54,4.92-.75,9.84-.29,14.78Z" fill="#406431"/><path d="M118.14,102.41c-3.06,.43-7.33-1.1-7.2,4.47-4.15-.82-5.43-3.95-4.59-7.36,.74-2.99-.4-4.34-2.44-5.73,1.89-1.22,3.85-1.84,5.26-4.28,1.38-2.38,5.23-.07,7.94-.64,2.64,.28,3.1,1.67,2.38,4.06-.92,3.07-1.98,6.17-1.37,9.48Z" fill="#849679"/><path d="M128.09,75.94c-1.74,1.69-4.28,1.13-6.24,2.2-2.07,.69-4.14,1.87-6.2-.03,.26-2.54-.5-5.6,2.57-6.93,2.51-1.09,5.29-2.48,6.99,1.49,.54,1.27,1.9,2.18,2.88,3.26Z" fill="#406431"/><path d="M125.52,106.8c-1.29-.37-1.5-1.48-1.76-2.56,.74-.12,1.47-.24,2.21-.36,0,0-.04-.03-.04-.03-.14,.98-.28,1.97-.41,2.95Z" fill="#66835f"/><path d="M112.2,76.61c.71,.3,1.6,.5,1.44,1.51-.11,.72-.8,.94-1.43,.79-1.16-.27-.7-1.12-.55-1.84,.2-.13,.38-.28,.55-.46Z" fill="#e1dbd5"/><path d="M87.93,85.93c-.14-.16-.28-.33-.42-.49,.17,.13,.34,.26,.51,.4,0,0-.09,.1-.09,.1Z" fill="#dbd3c9"/><path d="M89.11,87.21c-.4-.43-.79-.86-1.19-1.28,0,0,.09-.09,.09-.09,.45,.4,.9,.79,1.36,1.19,0,0-.26,.19-.26,.19Z" fill="#dbd3c9"/><path d="M98.14,77.13c.03,.12,.13,.33,.09,.36-.11,.09-.27,.1-.42,.14-.03-.12-.13-.33-.09-.36,.11-.09,.27-.1,.42-.14Z" fill="#e1dbd5"/><path d="M181.34,93.19c-.14-1.44-.28-2.89-.42-4.33,2.7-7.19,8.97-8.55,14.4-3.06,2.12,2.15,3.79,2.99,4.64-.9,1.31-.06,1.96-.74,1.91-2.07,0,0,.02-.02,.02-.02,2.48,.17,2.94-3.53,5.66-3.16,1.05,3.07-3.59,5.17-1,8.38,2.92-4.18,7.31-3.04,11.37-3.17-.55,2.06,1.6,4.97-1.95,6.07-.67-.01-1.34-.03-2.02-.04-.38-1.3-.61-2.27-2.18-.69-2,2.01-3.38,5.87-6.41,5.43-5.91-.85-9.56,1.38-11.69,6.85-2.07-2.45-1.67-4.68-1.71-6.8-.06-2.83-3.11-4.65-3.91-3.32-2.32,3.86-4.52,.78-6.71,.83Zm22.57-2.16c.05-1.13-.38-1.96-1.57-2.09-1.31-.14-2.26,.35-2.37,1.83-.09,1.15,.39,1.95,1.57,2.07,1.29,.14,2.28-.29,2.37-1.8Z" fill="#f6bc96"/><path d="M223.9,99.87c0,1.66,0,3.31,0,4.97-1.96,2.98,.92,5.99-.05,8.97-1.96,1.06-2.75,4.42-5.95,3.03-.2-2.02,4.74-4.08-.05-6.06-.03-3.95-.05-7.9-.08-11.84,.05-2.02,.11-4.04,.16-6.06,2.27-.27,2.91-2.94,5.17-3.47,1.57,1.63,.61,3.66,.84,5.48-2.84,1.27-2.82,2.62-.11,4.04,.02,.31,.04,.63,.07,.94Z" fill="#f6bc96"/><path d="M217.92,84.87c-4.06,.13-8.46-1.01-11.37,3.17-2.59-3.21,2.05-5.31,1-8.38-2.72-.37-3.18,3.32-5.66,3.16,1.86-6.16,7.81-8.04,12.47-3.93,.11,.1,.3,.13,.45,.19-4.18,4.74,3.64,3.03,3.11,5.8Z" fill="#f6cfba"/><path d="M196.93,67.28c-.74,2.22-1.75,5.37-3.56,4.87-1.89-.52-3.7-3.37-3.93-5.81-.17-1.74,1.61-2.71,3.56-2.41,2.04,.32,3.9,.86,3.93,3.34Z" fill="#f6cfba"/><path d="M217.93,92.89c-.05,2.02-.11,4.04-.16,6.06-2.7-.04-1.02-4.26-3.92-4.11,.03-1.31,.07-2.63,.1-3.94,.67,.01,1.34,.03,2.02,.04-.03,1.34,.72,1.89,1.96,1.95Z" fill="#f6cfba"/><path d="M223.83,98.93c-2.71-1.42-2.73-2.77,.11-4.04-.04,1.35-.07,2.69-.11,4.04Z" fill="#f6cfba"/><path d="M201.87,82.84c.05,1.32-.6,2-1.91,2.07-.04-1.31,.61-1.99,1.91-2.07Z" fill="#f6cfba"/><path d="M223.85,113.82c.97-2.99-1.91-5.99,.05-8.97,2.46,.44,3.44,2.56,2.81,4.29-.99,2.7,.11,5.06,.1,7.57-.98,.12-1.95,.24-2.93,.37-.01-1.08-.02-2.16-.04-3.25Z" fill="#f7e1d8"/><path d="M104.82,128.69c.04-1.28,.08-2.55,.13-3.83l.03-.03c.63-.05,1.25-.09,1.87-.14,1.92,.77,3.01,2.5,4.26,3.97,1.88,2.21,3.06,5.14,6.41,5.67,.73,4.13,3.55,6.87,6.39,9.59,1.02,1.48,2.46,2.78,2.14,4.86-.71,.51-1.43,1.03-2.14,1.54,0,0-.21,.14-.21,.14-.19-.45-.38-.9-.57-1.35,0,0-.02,0-.02,0-.38-1.04-1.03-1.83-2.04-2.31-2.39-2.31-4.79-4.63-7.18-6.94-2.07-4.5-6.41-7.15-9.07-11.17Z" fill="#66835f"/><path d="M123.91,150.32c.71-.51,1.43-1.02,2.14-1.54,3.7-.59,4.68,4.05,8.02,4.17,.06,.57,.13,1.13,.19,1.7,.19,.4,.38,.8,.56,1.2-.15,1.05-.29,2.1-.43,3.15-2.43-.39-2.48,1.21-2.43,2.91-.89,.02-1.77,.05-2.66,.08,.37-3.81-4.49-4.97-4.38-8.65,.07-1.14-.18-2.17-1.01-3.01Z" fill="#849679"/><path d="M135.94,148.88c-.28,.74-.87,1.03-1.61,1.09,.05-.54-.1-1.3,.2-1.57,.46-.42,1.07-.1,1.41,.48Z" fill="#66835f"/><path d="M213.95,90.89c-.03,1.31-.07,2.63-.1,3.94-.24,3.33-.3,6.66,.34,9.96-.1,1.99-.2,3.98-.28,5.97-.03,.86,.1,1.77,1.1,1.94,1.2,.2,1.8-.59,2.09-1.66,.27-.04,.52-.12,.75-.26,4.79,1.98-.16,4.04,.05,6.06-.65,.38-1.3,.75-1.95,1.13-3.9-1.83-6.53,.34-8.94,2.94-1.86,2.01-3.57,3.11-5.24-.13-1.12-1.33-2.69-.84-4.03-.79-2.39,.09-3.04-1.24-3.18-3.21,2.97-3.18,6.83-1.55,10.33-1.91,2.71-.28,6.32-.67,4.73-4.29-.99-2.26-2.62-4.42-3.6-6.89-.41-1.04-1.96-1.82-3.45-1.14-.55,.25-1.58,.87-.86,1.3,3.36,2.04,1.43,6.12,3.79,8.9-5.48-1.93-10.52-1.13-15.46,.96-.75-.93-1.5-1.85-2.25-2.78-.04-1.62-.49-3.05-1.8-4.12-.85-2.6-2.69-4.93-2.15-7.91-.32-.25-.64-.5-.95-.75-1.3-1.41-1.37-3.2-1.54-4.96,2.19-.04,4.39,3.04,6.71-.82,.8-1.33,3.86,.49,3.91,3.32,.04,2.12-.35,4.35,1.71,6.8,2.14-5.48,5.79-7.71,11.69-6.85,3.03,.44,4.4-3.42,6.41-5.43,1.57-1.57,1.8-.61,2.18,.69Zm-26.33,14.38c1.17,1.71,1.31,4.53,3.48,4.06,1.99-.43,2.63-2.6,2.5-5.21-2.05,.85-3.76,2.47-5.98,1.15Z" fill="#f48a5a"/><path d="M163.83,108.93c.24-2.24,2.82-2.98,3.44-2.23,1.79,2.19,6.16,2.92,4.73,7.2-.37,1.65-.73,3.3-1.1,4.95-1.74,1.74,.32,2.92,.69,4.31,.65,2.43,.19,3.86-2.65,3.67-4.71-5.11-5.06-11.46-5.11-17.9Z" fill="#f6bc96"/><path d="M185.98,106.81c1.31,1.06,1.76,2.5,1.8,4.12-1.15,.2-2.63-.67-3.38,.99,4.41,2.9,4.67,4.15,1.5,6.9,.35-5.09-3.64-5.12-6.94-5.95-.69-.32-1.38-.65-2.07-.97,0-2.05-.33-3.89-2.38-5.02-2.39-1.31-1.97-3.93-2.43-6.04-.36-1.61,1.17-2.14,2.42-2.62,.91,2.93,4.14,.49,5.5,2.38-.72,1.32-3.48,2.76-2.3,3.57,2.18,1.5,2.14,6.38,6.5,4.62,2.68,1.22,1.34-1.19,1.79-1.99Z" fill="#f6bc96"/><path d="M175.89,144.86c-2.67-1.3-5.35-2.61-8.02-3.91,.25-3.39,4.52-1.2,5.41-4.09-1.4-1.42-5.68-1.22-3.5-5.12,.36-.33,.72-.67,1.08-1,2.21-.3,3.17,1.29,4.28,2.76,1.88,2.49,3.85,4.9,5.79,7.35-.95,1.31,.48,2.42,.3,3.67-1.71,1.12-3.67-1.5-5.34,.35Z" fill="#f6bc96"/><path d="M170.86,130.74c-.36,.34-.72,.67-1.08,1.01-1.92-.21-3.33,1.19-5.5,2.17,1.16-4.47-1.05-7.68-2.15-11.16-.36-.96-.71-1.91-1.07-2.87,1.13-1.02,1.14-2.05,0-3.06-.42-2.07,.54-3.95,.84-5.93,.12-1.18,.62-1.98,1.94-1.96,.06,6.44,.41,12.79,5.11,17.9,.5,1.37,2.12,2.19,1.91,3.9Z" fill="#f7e1d8"/><path d="M161.05,119.89c.36,.96,.71,1.91,1.07,2.87-.48,2.47,.49,5.14-1.18,8.4-1.87-4.83-.73-9.02-1.01-13.07-.13-1.91,.49-4.16-1.99-5.04-1.77-.64-2.6-1.83-1.54-3.31,1.1-1.53,2.54-.86,3.75,.33,.43,.42,1.14,.56,1.73,.83-.3,1.97-1.26,3.85-.84,5.93,0,1.02,0,2.04,0,3.06Z" fill="#f6bc96"/><path d="M176.88,111.89c.69,.32,1.38,.65,2.07,.97-.07,.31-.14,.62-.22,.93-.72,.48-.89,1.21-.87,2.01-.75,.99-1.51,1.98-2.26,2.98-1.56,.59-3.09,2.88-4.71,.07,.37-1.65,.73-3.3,1.1-4.95,2.15,.59,3.02-1.91,4.88-2.01Z" fill="#f7e1d8"/><path d="M184.19,108.8c-4.35,1.76-4.32-3.12-6.5-4.62-1.18-.81,1.58-2.25,2.3-3.57,2.54,2.14,1.42,6.16,4.19,8.19Z" fill="#f48a5a"/><path d="M159.89,96.85c.34-.03,.67-.06,1.01-.09,1.86,2.48,1.23,4.96,.08,8.65-1.56-3.49-.84-6.09-1.09-8.56Z" fill="#f6bc96"/><path d="M182.88,98.15c.32,.25,.64,.5,.95,.75-.32-.25-.64-.5-.95-.75Z" fill="#f6bc96"/><path d="M163.92,202.78c-.07-1.39-.99-1.68-2.17-2.07-1.94-.64-3.61-1.74-1.63-4.09,3.77,.39,7.52,.66,10.8-1.84,2.72,.28,3.98-1.53,5.06-3.57,1.98-1.14,3.96-2.27,5.95-3.41,1.81,.2,3.33-.71,4.93-1.32,.71,.07,1.43,.14,2.14,.21,1.7,.43,3.05-1.73,4.84-.67,1.06,1.49,2.71,.57,4.04,.99-.35,2.2-2.08,1.77-3.49,1.75-6.32-.06-10.64,4.32-15.71,7.02-.5,.26-1.03,1.12-.98,1.65,.51,6.4-4.06,5.32-7.82,5.32-1.6,0-2.8,.69-4.11,1.43-1.33,.76-1.64-.4-1.83-1.42Z" fill="#eeede8"/><path d="M161,186.8c2.7-.26,2.91-2.13,2.94-4.29,.03-3.18,.73-6.2,2.95-8.66,.58,6.02,.82,12.01-.97,17.9-.64,0-1.27-.02-1.91-.02,.88-2.79-3.11-2.61-3.01-4.93Z" fill="#cab9a2"/><path d="M186.86,186.48c-1.6,.61-3.12,1.51-4.93,1.32-.05-.53-.09-1.07-.14-1.6-1.76-4.29,1.96-7.05,2.95-10.57,2.28,3.31,2.15,7.09,2.11,10.86Z" fill="#66835f"/><path d="M164.01,191.73c.64,0,1.27,.02,1.91,.02,1.09,1.96,3.7,1.4,4.99,3.02-3.28,2.5-7.03,2.23-10.8,1.84-.87-.99-2.08-.67-3.17-.83-.04-.28-.06-.57-.08-.85,2.1-1.59,5.72,.29,7.03-3.09l.11-.11Z" fill="#b7a98e"/><path d="M181.79,186.2c.05,.53,.09,1.07,.14,1.6-1.98,1.14-3.96,2.27-5.95,3.41-.72-3.93,.12-4.65,5.81-5.01Z" fill="#406431"/><path d="M175.89,144.86c1.67-1.85,3.63,.78,5.34-.35,.25,.08,.51,.16,.77,.23,1.32,3.76,3.77,2.13,5.85,1.06,3.33-1.69,6.5-3.14,10.5-3.06,7.86,.17,9.81-2.44,8.43-10.06,.68-.32,1.36-.64,2.04-.95,4.15,.91,8.02,1.25,10.12-3.7,.92-2.17,3.62-.72,5.26-2.13,.79-.68,1.74,1.39,1.34,2.33-.63,1.48-1.51,3.44-2.79,3.95-6.08,2.43-6.21,7.34-5.87,12.6-6.78,3.9-14.1,4.79-21.76,4.02-1.47-.15-3.14-.39-4.44,.12-6.02,2.34-10.48-.49-14.8-4.06Z" fill="#f6cfba"/><path d="M131.95,161.91c-.06-1.69,0-3.29,2.43-2.91,3.8,5.44,7.61,10.88,11.42,16.32,.04,.51,.08,1.01,.12,1.51-.33,.33-.65,.66-.98,.98-.32,0-.64-.01-.96-.03-2.63-3.12-4.75-6.68-8.07-9.19-.32-1.22-.65-2.44-.97-3.66-.05-1.35-.71-2.09-2.1-2.1l-.89-.93Z" fill="#b7a98e"/><path d="M134.81,155.85c-.19-.4-.38-.8-.56-1.2,.19,.4,.38,.8,.56,1.2Z" fill="#66835f"/><path d="M208.81,131.73c-.68,.32-1.36,.64-2.04,.95-1.13,.15-2.63,.04-2.88,1.42-1.5,8.25-6.42,7.51-12.19,4.8-.42-.2-.99-.17-1.47-.12-4.68,.53-7.48-.76-6.07-6.18,.23-.88,.34-1.7-.89-1.7-1.05,0-1.29,.83-1.39,1.69-.59,.03-1.18,.06-1.77,.09-.28-1.53-.9-2.89-2.09-3.95,.3-3.59-4.68-5.9-2.42-9.97,.75-.99,1.51-1.98,2.26-2.98,.88-.41,1.03-1.15,.87-2.01,.08-.31,.15-.62,.22-.93,3.3,.83,7.29,.87,6.94,5.95-1.18,.25-2.63-.52-3.78,1.36,2.65,.56,4.28,1.93,4.02,4.85-.08,.96,.9,1.7,2.02,1.77,.98,.07,1.53-.44,1.67-1.38,.48-3.21,2.98-2.35,4.99-2.5,1.57,7.26,1.19,6.64-4.47,6.56,1.53,2.56,3.56,3.9,6.57,3.36,4.46-1.13,1.8-5.73,3.91-8,4,.09,7.69-.28,10.96-3.25,2.03-1.85,4.94-.78,7.81-.32-2.59,4.93-5.78,8.63-10.79,10.47Z" fill="#f48a5a"/><path d="M194.82,122.93c-2.01,.15-4.51-.71-4.99,2.5-.14,.94-.69,1.44-1.67,1.38-1.13-.08-2.11-.81-2.02-1.77,.26-2.92-1.37-4.3-4.02-4.85,1.15-1.88,2.6-1.11,3.78-1.36,3.17-2.75,2.91-4-1.5-6.9,.75-1.66,2.23-.79,3.38-.99,.75,.93,1.5,1.85,2.25,2.78,.03,.59,.13,1.75,.63,1.39,2.4-1.68,2.94,.36,3.89,1.68,.15,1.97,.8,3.31,3.18,3.21,1.34-.05,2.91-.54,4.03,.79-1.69,.49-4.27-1.12-4.83,2.05,0,0-.04,.04-.04,.04-.69,.02-1.39,.04-2.08,.06Z" fill="#f6cfba"/><path d="M200.84,124.84c-2.11,2.27,.55,6.88-3.91,8,0-3.32-.02-6.65-.02-9.97,0,0,.04-.04,.04-.04,1.3,.67,2.59,1.34,3.89,2.01Z" fill="#f6cfba"/><path d="M215.95,117.97c.65-.38,1.3-.75,1.95-1.13,3.2,1.39,3.99-1.97,5.95-3.03,.01,1.08,.02,2.16,.04,3.25-1.83,1.75-4.29,2.03-6.56,2.69-1.51,.45-2.12-.26-1.38-1.79Z" fill="#f6cfba"/><path d="M161,186.8c-.1,2.32,3.89,2.14,3.01,4.93,0,0-.11,.11-.11,.1-3.92,.57-4.42-2.2-4.89-5,.35-.08,.7-.16,1.05-.23,.32,.04,.63,.11,.94,.2Z" fill="#b7a98e"/><path d="M160.06,186.6c-.35,.08-.7,.16-1.05,.23-.35-.06-.69-.11-1.04-.17,0-.93,0-1.86,0-2.78,1.96-.07,1.92,1.41,2.09,2.72Z" fill="#cab9a2"/><path d="M144.94,177.82c.33-.33,.65-.66,.98-.98,2.89,1.11,4.81,3.19,6.04,5.97,.88,1.75,2.28,2.99,3.9,4-.33,2.79-.35,5.54,1,8.12,.02,.29,.04,.57,.08,.85-.92,.04-1.84,.08-2.76,.13-.08-.69-.15-1.38-.23-2.07-1.65-3.68-2.58-7.76-5.95-10.45-1.02-1.86-2.04-3.71-3.06-5.57Z" fill="#cab9a2"/><path d="M156.87,194.93c-1.35-2.58-1.33-5.33-1-8.12,.7-.05,1.4-.09,2.1-.14,.35,.05,.69,.11,1.04,.16,.48,2.8,.97,5.58,4.9,5-1.31,3.38-4.93,1.5-7.03,3.09Z" fill="#849679"/><path d="M201.93,198.8c0,.34,0,.68,.01,1.02-.53,.24-1.44,.4-1.52,.75-.26,1.09,.73,1.11,1.48,1.24,1.9,1.18,.12,3.82,1.98,5.02-.01,1.29-.02,2.57-.03,3.86-.64,.02-1.28,.04-1.91,.06-.44-.79-1.21-.92-2-1-1.28-1.05-2.06-2.76-3.95-3-1.64-2.55-4.26-3.38-7-4,.12-.85,.42-2,1.35-1.7,3,.96,3.38-.42,3.84-3.02,.73-4.14,2.99-3.69,5.43-1.07,.67,.71,1.54,1.23,2.33,1.84Z" fill="#f6bc96"/><path d="M195.98,206.75c1.89,.24,2.67,1.95,3.95,3-1.33,2.33-.51,3.23,2,3.02v.02c0,2.01-.03,4.03-.05,6.04-1.34,.66-2.08,1.64-1.72,3.21-.07,.26-.13,.51-.21,.77-3.38,.65-1.54,3.35-2.01,5.13-4.2,.13-5.2-1.68-3.2-5.3,.87-.96,1.73-1.93,2.6-2.89,2.6-2.86,1.85-4.84-1.67-5.9-2.58-.77-3.89-2.33-3.75-5.04,1.61-.19,3.7,.58,4.06-2.06Z" fill="#f6cfba"/><path d="M201.94,210.75c.64-.02,1.28-.04,1.92-.05,.68,.05,1.36,.1,2.04,.15,5.14,3.54,4.93,8.62,4.01,13.91,0,0,0,.02,0,.02-1.29,.04-1.95,.7-1.99,1.98l-.49,.04s-.49-.03-.49-.03c-.01-.8-.17-1.54-.94-1.97-.06-.65-.12-1.29-.18-1.94,1.69-2.7-.8-1.76-1.82-2.09-.04-.62-.09-1.23-.13-1.85-.56-2.07,1.7-5.01-1.9-6.13,0,0-.01-.02-.01-.02,0-.67,0-1.35,0-2.02Z" fill="#eeede8"/><path d="M220.98,230.87c-.89,4.58-4.98,6.09-8.34,9.19-.64-3.4,.83-5.68,1.77-7.91,2.18-5.17,2.19-5.33-3.52-5.36-.66,0-1.32,0-1.98,0,.32-.67,.64-1.35,.97-2.02,0,0,.01-.01,0-.02,3.07,.03,6.15,.21,9.37-.71,.9,2.29-4.73,6.29,1.72,6.82Z" fill="#f6cfba"/><path d="M201.93,198.8c-.78-.61-1.66-1.12-2.33-1.84-2.45-2.62-4.7-3.07-5.43,1.07-.46,2.6-.84,3.98-3.84,3.02-.94-.3-1.23,.85-1.35,1.7-1.46-.04-2.97,.38-4.59-.6,1.71-4.42,6.25-6.19,9.37-8.95,3.27-2.9,7.6,.47,8.18,5.6Z" fill="#f6cfba"/><path d="M205.89,210.85c-.68-.05-1.36-.1-2.04-.15,.01-1.29,.02-2.57,.03-3.86,3.06,1.5,3.53,2.44,2.01,4.01Z" fill="#f6cfba"/><path d="M225.91,216.76c0,.67-.01,1.34-.02,2.01-2.04-.09-1.97-1.55-1.94-2.99,.8,.04,1.53,.22,1.96,.98Z" fill="#dfd9d1"/><path d="M201.9,201.82c-.75-.14-1.73-.16-1.48-1.24,.08-.35,.99-.5,1.52-.75-.01,.66-.03,1.33-.04,1.99Z" fill="#f6cfba"/><path d="M190.95,208.75c-.34-.32-.67-.65-1.01-.97,.34,.32,.67,.65,1.01,.97Z" fill="#f6cfba"/><path d="M193.83,186.03c-1.79-1.06-3.13,1.09-4.84,.67-.42-8.8,4.16-12.82,11.17-9.81-1.68,3.34-3.42,6.65-6.33,9.14Z" fill="#406431"/><path d="M42.24,16.8c-.32,.45-.65,.89-.97,1.34-.08-.58-.16-1.17-.24-1.75,.41,.14,.81,.28,1.22,.41Z" fill="#849679"/><path d="M124.92,153.33c-.11,3.68,4.75,4.84,4.38,8.65-5.57,5.6-12.74,7.56-20.18,8.89-1.56,.89-1.13,1.86-.1,2.84-3.44,1.22-5.67,6.03-10.38,3.54,2.44-4.04,2.18-4.4-4.65-6.43,2.15-1.63,4.14-3.09,.84-5.75-1.07-.86-1.19-2.89-1.74-4.38-.05-1.29-.09-2.57-.14-3.86,3.49,.02,2.96-1.56,1.41-3.54,.83-.37,1.67-.74,2.5-1.11,.71,.18,1.42,.35,2.14,.53,1.3-.08,2.6-.16,3.9-.25,2-.37,4.01-.75,6.01-1.12,.71,.01,1.41,.03,2.12,.04,4.62,.79,9.46-.1,13.9,1.94Zm-25.28,5.79c-.42,6.36,2.46,8.56,8.06,7.72,.97-.15,2-.08,2.97,.09,1.41,.25,2.98,1.29,3.87-.67,.93-2.06-1.23-2.24-2.14-3.24-3.48-3.84-8.69-1.59-12.76-3.89Z" fill="#406431"/><path d="M72.07,153.17c1.3-.12,2.6-.25,3.9-.37,.99,.1,1.99,.21,2.98,.31,.87,.93,1.96,.81,3.06,.68,2.98,.39,4.74,2.58,6.7,4.5,.44,1.14,1.17,2.03,2.31,2.54,.01,.32,.05,.63,.1,.94,.05,.38,.09,.76,.14,1.13,.25,2.13-.08,4.14-1.28,5.96-6.72-.05-13.45,.02-20.17-.2-2.46-.08-2.29-2.49-1.77-3.85,1.38-3.64,.5-7.15,.13-10.73,1.29-.33,2.8,.27,3.88-.92Z" fill="#406431"/><path d="M98.85,195.89c-1.79-3.3-5.96-5.21-4.49-10.43,.81-2.88-2.37,.18-3.42-.81,.45-2.29,1.88-4.29,4.02-4.26,1.57,.02,2.54,2.26,2.98,4.06,.27,1.09,.01,1.99,2.05,1.51,2.71-.64,5.99,.66,5.53,3.84-.42,2.86,.22,7.98-5.64,7.05,0,0,.05,.01,.05,.01-.23-.47,.51-2.04-1.09-.96Z" fill="#849679"/><path d="M133.87,198.51c-.62,.05-1.23,.09-1.85,.14,1.6-5.44,4.62-10.06,8.42-14.19,.58-.63,1.47-.7,2.3-.38,1.45,.56,1.21,1.88,1.08,2.95-.36,2.92-2.21,5.5-1.96,8.57-1.31,.68-2.63,1.36-3.94,2.04-.66,.14-1.31,.28-1.97,.42-.77-.22-1.5-.21-2.08,.45Z" fill="#406431"/><path d="M133.76,170.61c.72-.67,1.44-1.34,2.15-2.01,3.32,2.51,5.44,6.07,8.07,9.19-2.17,3.09-4.2,5.01-6.34-.13-1.03-2.46-2.57-4.71-3.88-7.05Z" fill="#406431"/><path d="M148.01,183.39c3.37,2.69,4.3,6.78,5.95,10.45-1.91-.6-4.82,1.63-5.48,0-1.29-3.2-2.66-6.88-.47-10.44Z" fill="#406431"/><path d="M90,168.86c1.2-1.82,1.53-3.83,1.28-5.96,.09-.13,.29-.29,.27-.37-.09-.27-.26-.51-.41-.76-.06-.31-.09-.62-.1-.94,.68-.05,1.37-.09,2.05-.14,.55,1.49,.68,3.52,1.74,4.38,3.3,2.66,1.32,4.12-.84,5.75-1.55-.21-4.41,2.25-3.99-1.96Z" fill="#cab9a2"/><path d="M137.92,197.64c1.31-.68,2.63-1.36,3.94-2.04,.36,.4,.71,.8,1.07,1.21-2.85,3.13-3.53,3.24-5.01,.83Z" fill="#cab9a2"/><path d="M121.17,207.76c1.53,.43,2.41,1.44,.94,2.56-1.22,.93-2.74,.61-3.19-1.32,.75-.41,1.5-.83,2.25-1.25Z" fill="#cab9a2"/><path d="M105.13,185.07c.04,.12,.13,.33,.09,.35-.11,.08-.27,.1-.42,.14-.04-.12-.13-.33-.09-.36,.11-.08,.27-.1,.42-.14Z" fill="#849679"/><path d="M93.42,196.75c-3.88-.61-6.19-2.71-6.45-6.77,3.5,.97,5.99,2.91,6.45,6.77Z" fill="#406431"/><path d="M98.85,195.89c1.6-1.08,.86,.49,1.09,.96-.36-.32-.73-.64-1.09-.96Z" fill="#66835f"/><path d="M149.02,209.87c-3.02-.69-5.86,.57-8.79,.79-2.18-6.02-2.14-6.17,4.05-7.38,2.9-.57,5.96-.5,8.54-2.27-.3,3.15-3.28,5.35-3.05,8.68-.24,.07-.49,.13-.74,.18Z" fill="#849679"/><path d="M54.98,166.82c.14,.08,.28,.16,.42,.24-.14-.08-.28-.16-.42-.24,0,0,0,0,0,0Z" fill="#66835f"/><path d="M70.98,58.7c1.72,3.73,.46,6.76-2.45,9.16-5.41,4.46-11.27,7.86-18.72,7.11-2.27-.23-3.72-.94-3.9-3.49-.23-3.19-1.9-5.91-3.17-8.76,.07-.29,.14-.58,.21-.88,5.79,0,3.27-4.69,3.24-6.95-.06-4.06,2.88-7.9,.64-12.17-.49-.93,.41-3.43,2.52-3.64,1.65-.17,3.74-1.08,4.6,1.45,.49,1.44,1.86,1.75,2.98,2.4,5.61,1.33,7.11,5.35,6.99,10.51-.14,6.05-1.92,7.53-7.86,6.4-.64-3.78-1.75-7.05-6.78-6.35,.26,3.16,3.08,4.22,4.51,6.3-1.32,.12-2.4,.7-3.3,1.69,1.04,.83,2.09,1.53,3.47,1.45,3.28,3.22,6.51,2.85,9.7-.14,2.5-1.25,5.7-1.23,7.31-4.07Zm-15.07-7.89c-.14,.2-.27,.39-.41,.59,.19-.14,.39-.28,.58-.42,.13-.18,.25-.37,.38-.55l-.55,.39Z" fill="#f48a5a"/><path d="M70.98,58.7c-1.61,2.85-4.82,2.82-7.31,4.07-3.23,.05-6.47,.09-9.71,.14-1.38,.08-2.43-.62-3.47-1.45,.91-.99,1.98-1.57,3.31-1.69,.76,.02,1.51,.03,2.27,.05,5.94,1.13,7.72-.35,7.86-6.4,.12-5.16-1.38-9.19-6.99-10.51,3.08-3.21,6.15-2.85,8.86,.35,3.74,4.42,5.84,9.49,5.18,15.44Z" fill="#f6cfba"/><path d="M48.28,82.81c-.69-.73-1.38-1.46-2.06-2.19-1.15-.91-2.48-.97-3.71-.4-4.92,2.29-7.8-2.07-11.57-3.48-.63-.23-.88-.95-.43-1.63,.86-1.31,2.22-1.17,3.52-1.18,1.15-.13,2.43,.02,3.42-.45,3.19-1.49,5.62-.82,7.62,2.03,3.5,4.99,8.72,3.36,13.73,3.13-1.74,4.48-5.34,4.19-8.79,4.2-.58-.01-1.15-.02-1.73-.04Z" fill="#f48a5a"/><path d="M79.04,104.01c.94,1.33,2.42,2.57,2.67,4.01,.27,1.58,3.21,4.02,1.05,4.25-2.3,.24-4.84,4.45-7.91-.05-2.15-3.15-4.13-6.63-6.95-9.37,1.4-.39,3.67,2.53,4.22-1.1,1.53-1.08,2.75,.35,4.13,.52,.07,1.95,1.78,1.3,2.79,1.75Z" fill="#849679"/><path d="M66.91,78.79c3.09,.05,7.61-2.4,7.03,4.04-2.61,.36-4.75,2.51-7.6,2.01-1.5-.27-3.55,.84-4.21-1.5-.57-2.05,1.28-2.9,2.42-3.97,.51-.48,1.55-.4,2.35-.57Z" fill="#f7e1d8"/><path d="M37.98,69.87c.36-2.99,.16-5.85-1.85-8.31-.65-2.3,2.3-4.07,.96-6.47,.62-.1,1.23-.19,1.85-.28,.4,.73,.79,1.46,1.19,2.18-.04,1.65-.08,3.3-.12,4.95,1.39,3.17,2.87,6.37-2.02,7.94Z" fill="#f48a5a"/><path d="M48.28,82.81c.58,.01,1.15,.02,1.73,.04,.04,2.47,2.6,1.56,3.59,2.68,.72,.81,2.33,1.41,1.78,2.67-.53,1.22-1.93,1.8-3.37,1.16-1.63-.73-4.11-.19-4.24-3.19-.07-1.54-1.7-1.17-2.8-1.31,.64-1.43,1.77-2.07,3.31-2.06Z" fill="#f6cfba"/><path d="M40,61.93c.04-1.65,.08-3.3,.12-4.95,7.52-2.21,1.36,3.55,2.84,4.86-.07,.29-.14,.59-.21,.88-.92-.26-1.83-.53-2.74-.79Z" fill="#f7e1d8"/><path d="M38.93,54.79c-.62,.09-1.23,.19-1.85,.28-1.82-1.96-1.99-3.75,.55-5.53,.47,1.89,.88,3.57,1.3,5.24Z" fill="#f7e1d8"/><path d="M34,71.9c-1.12-1.45-1.95-2.71,1.07-2.13,.94,.18,1.93,.08,2.9,.1-.26,2.76-2.44,1.77-3.98,2.03Z" fill="#f48a5a"/><path d="M25.92,64.87c.02,2.63,1.57,3.71,3.98,3.9-.17,2.63-2.03,2.56-3.45,1.61-2.09-1.41-2.08-3.5-.53-5.51Z" fill="#f6bc96"/><path d="M26.01,61.89c-.03,.34-.06,.67-.08,1.01-.7-.4-.63-.73,.08-1.01Z" fill="#f6bc96"/><path d="M97.6,128.91c.44-.68,.87-1.37,1.31-2.05,1.42,.12,3.08-.61,4.02,1.17-1.99,1.06-4.1,2.03-3.85,4.87-.03,2.32-.07,4.64-.1,6.96-.66,.3-1.32,.61-1.98,.91-.38-.65-.75-1.31-1.13-1.96-2.14-3.78,2.2-6.41,1.74-9.89Z" fill="#66835f"/><path d="M194.74,222.64c-2.01,3.62-1.01,5.42,3.2,5.3,.56,.75,1.39,1,2.2,.81,4.25-.96,3.42,1.44,2.6,3.85-2.3,1.04-4.6,2.08-6.9,3.12-1.28,.02-2.55,.03-3.83,.05,.63-3.36-2.78-5.66-2.34-8.97,.85-2.16-1.52-6.13,3.37-6.04,1.22,.02,1.7,.74,1.71,1.88Z" fill="#f48a5a"/><path d="M193.92,248.77c-1.12,.93-2.42,1.29-3.85,1.25-2.75-.45-4.77-2.13-6.76-3.92-.92-.83-1.97-1.6-.89-2.8,.86-.96,2.11-1.92,3.48-.92,4.27,3.13,8.51,3.78,13.21,.78,1.47-.94,3.13,.09,4.39,1.61-2.38,3.4-7.32,.63-9.58,4Z" fill="#f48a5a"/><path d="M189.66,226.8c-.43,3.31,2.97,5.61,2.34,8.97-5.13-.72-6.77-3.8-6.12-8.67,.26-1.95,.02-3.96,.06-5.94,.11-5.63,1.56-6.46,6.97-4.03-5.92,2.19-6.43,3.7-3.25,9.67Z" fill="#f6cfba"/><path d="M195.84,235.72c2.3-1.04,4.6-2.08,6.9-3.12,1.83,.26,3.54,.19,5.11-1.09,1.16-.94,2.16-.36,2.74,.88,.38,.83,.25,1.76-.62,2.1-4.58,1.77-9.08,4.68-14.12,1.23Z" fill="#f6cfba"/><path d="M184.12,232.12c-5.56-2.1-5.69-3.77-1.04-12.32,1.59,4.29,.38,8.27,1.04,12.32Z" fill="#f48a5a"/><path d="M170.16,232.69c1.02,3.1,2.59,6.07,2,9.51-.13,.79,.03,1.74-.89,2.14-.95,.41-1.54-.31-2.12-.89-2.3-2.31-1.79-8.61,.87-10.92,0,0,.13,.16,.13,.16Z" fill="#f48a5a"/><path d="M180.84,246.83c-2.3-.02-4.6-.03-6.89-.05-1.16-1.02-1.37-2.33-.35-3.38,1.14-1.16,1.99,.08,2.78,.83,1.28,1.22,4.29-.52,4.46,2.59Z" fill="#f6cfba"/><path d="M199.95,222.8c.07-.25,.14-.51,.21-.77,2.2,.1,3.47,1.48,3.5,3.43,.02,1.65-1.71,1.28-2.75,1.13-3.29-.45-.43-2.57-.95-3.8Z" fill="#f48a5a"/><path d="M190.11,236.87c1.23,.1,1.72,.84,1.69,1.99-.03,1.19-.68,1.79-1.86,1.81-1.5,.02-2.08-.84-1.93-2.22,.13-1.22,.97-1.62,2.1-1.58Z" fill="#f6cfba"/><path d="M201.95,212.78c3.6,1.12,1.35,4.06,1.9,6.13-.66-.03-1.31-.06-1.97-.09,.02-2.01,.04-4.03,.07-6.04Z" fill="#f7e1d8"/><path d="M203.98,220.76c1.02,.33,3.51-.61,1.82,2.09-1.33-.07-1.93-.77-1.82-2.09Z" fill="#f7e1d8"/><path d="M209.89,224.77c-.32,.67-.64,1.35-.97,2.02-.34-.01-.68-.02-1.02-.03,.04-1.29,.7-1.95,1.99-1.98Z" fill="#f7e1d8"/><path d="M205.98,224.79c.77,.44,.93,1.17,.94,1.97-.87-.39-1-1.14-.94-1.97Z" fill="#f7e1d8"/><path d="M181.8,247.83c-.3-.33-.6-.66-.9-.98,.3,.33,.6,.66,.9,.98Z" fill="#f6cfba"/><path d="M155.93,209.79c.68,.33,.71,.66,0,.99,0-.33,0-.66,0-.99Z" fill="#eeede8"/><path d="M193.83,257.71c-.35,.25-.7,.51-1.06,.76,.35-.26,.7-.51,1.06-.76Z" fill="#f6cfba"/><path d="M127.98,101.89c-.34,.33-.67,.67-1.01,1,.34-.33,.67-.67,1.01-1Z" fill="#849679"/><path d="M99.34,122.54c-4.46-3.01-5.66-7.97-7.53-12.53,4.7,.98,9.71,9.31,7.53,12.53Z" fill="#66835f"/><path d="M104.94,124.86c-.14-.08-.28-.16-.43-.24,.15,.07,.31,.14,.46,.21,0,0-.03,.03-.03,.03Z" fill="#66835f"/><path d="M120.04,130.15c-1.08-.36-2.09-.78-2.17-2.15,1.54-.32,2.54,.35,3.17,1.71-.33,.15-.67,.29-1,.44Z" fill="#849679"/><path d="M117.8,127.91c-.29-.32-.58-.63-.87-.95,.29,.32,.58,.63,.87,.95Z" fill="#849679"/><path d="M203.9,91.03c-.09,1.52-1.07,1.94-2.37,1.8-1.18-.12-1.66-.93-1.57-2.07,.11-1.48,1.06-1.97,2.37-1.83,1.19,.13,1.63,.96,1.57,2.09Z" fill="#f48a5a"/><path d="M214.19,104.8c-.64-3.3-.58-6.63-.34-9.96,2.9-.15,1.22,4.07,3.92,4.11,.03,3.95,.05,7.9,.08,11.84-.23,.14-.48,.23-.75,.26-2.53-1.36,.51-5.31-2.91-6.25Z" fill="#f7e1d8"/><path d="M122.21,148.87c.3,.09,.59,.17,.89,.24,0,0,.02,0,.02,0-.3-.08-.61-.16-.91-.24Z" fill="#849679"/><path d="M194.56,116.78c-.95-1.32-1.49-3.36-3.89-1.68-.51,.35-.61-.81-.63-1.39,4.93-2.09,9.97-2.89,15.46-.96-2.36-2.78-.43-6.86-3.79-8.9-.72-.44,.31-1.05,.86-1.3,1.49-.68,3.03,.1,3.45,1.14,.99,2.47,2.61,4.63,3.6,6.89,1.59,3.62-2.02,4.01-4.73,4.29-3.49,.36-7.35-1.26-10.33,1.91Z" fill="#f6bc96"/><path d="M187.62,105.27c2.22,1.31,3.93-.3,5.98-1.15,.13,2.61-.51,4.78-2.5,5.21-2.17,.47-2.31-2.35-3.48-4.06Z" fill="#f6bc96"/><path d="M214.19,104.8c3.42,.94,.38,4.89,2.91,6.25-.29,1.07-.89,1.87-2.09,1.66-1.01-.17-1.14-1.08-1.1-1.94,.08-1.99,.19-3.98,.28-5.97Z" fill="#f6cfba"/><path d="M180.12,132.7c.59-.03,1.18-.06,1.77-.09-.14,3.02,0,5.97,2.08,8.44-1.01-.07-2.03-.14-3.04-.21-1.93-2.45-3.91-4.86-5.79-7.35-1.11-1.47-2.06-3.05-4.28-2.76,.21-1.72-1.41-2.54-1.91-3.9,2.84,.19,3.3-1.24,2.65-3.67-.37-1.39-2.43-2.58-.69-4.31,1.61,2.81,3.15,.52,4.71-.07-2.26,4.07,2.72,6.38,2.42,9.97,.13,1.61-.99,3.89,2.09,3.94Z" fill="#f6cfba"/><path d="M180.92,140.85c1.01,.07,2.03,.14,3.04,.2,.45,1.55,3.4-.01,3.01,2.14-.39,2.17-2.46,1.55-4.01,1.58-.32,0-.64-.02-.97-.02-.26-.07-.51-.14-.77-.23,.17-1.25-1.25-2.36-.3-3.67Z" fill="#f48a5a"/><path d="M161.05,119.89c0-1.02,0-2.04,0-3.06,1.14,1.02,1.14,2.04,0,3.06Z" fill="#f6cfba"/><path d="M178.74,113.79c.16,.87,.01,1.6-.87,2.01-.02-.81,.15-1.53,.87-2.01Z" fill="#f6bc96"/><path d="M181.99,144.74c.32,0,.64,.03,.97,.02,1.55-.02,3.62,.59,4.01-1.58,.39-2.15-2.56-.59-3.01-2.14-2.07-2.47-2.22-5.42-2.08-8.44,.1-.87,.34-1.7,1.39-1.7,1.24,0,1.12,.82,.89,1.7-1.41,5.42,1.4,6.71,6.07,6.18,.48-.06,1.05-.08,1.47,.12,5.77,2.71,10.69,3.46,12.19-4.8,.25-1.38,1.75-1.27,2.88-1.42,1.37,7.62-.57,10.24-8.43,10.06-4-.09-7.17,1.36-10.5,3.06-2.09,1.06-4.53,2.69-5.85-1.06Z" fill="#f6bc96"/><path d="M134.94,164.93c-1.23-.17-1.88-.92-2.1-2.1,1.4,0,2.05,.74,2.1,2.1Z" fill="#849679"/><path d="M196.9,122.87c0,3.32,.02,6.65,.02,9.97-3.01,.54-5.04-.8-6.57-3.36,5.66,.08,6.04,.7,4.47-6.56,.69-.02,1.38-.04,2.08-.06Z" fill="#f6bc96"/><path d="M180.12,132.7c-3.08-.05-1.96-2.33-2.09-3.94,1.19,1.05,1.8,2.41,2.09,3.94Z" fill="#f6bc96"/><path d="M201.94,210.75c0,.67,0,1.35,0,2.02-2.51,.21-3.33-.69-2-3.02,.8,.07,1.56,.21,2,1Z" fill="#f7e1d8"/><path d="M99.63,159.12c4.07,2.31,9.27,.06,12.76,3.89,.91,1,3.06,1.19,2.14,3.24-.89,1.97-2.46,.93-3.87,.67-.97-.17-2-.24-2.97-.09-5.61,.84-8.48-1.36-8.06-7.72Z" fill="#66835f"/><path d="M94.01,153.31s.34-.01,.34-.01c1.55,1.98,2.08,3.56-1.41,3.54-.94-.02-1.87-.04-2.81-.06-.2-1.19-.35-2.36,.71-3.27,1.07,.25,2.15,.48,3.17-.19Z" fill="#66835f"/><path d="M90.13,156.77c.94,.02,1.87,.04,2.81,.06,.05,1.29,.09,2.57,.14,3.86-.68,.05-1.37,.09-2.05,.14-1.14-.51-1.87-1.4-2.31-2.54,.47-.5,.94-1.01,1.41-1.51Z" fill="#849679"/><path d="M102.88,152.47c1.6-2.56,3.83-1.67,6.01-1.12-2,.37-4.01,.75-6.01,1.12Z" fill="#b7a98e"/><path d="M96.85,152.19c1.19-1.76,1.77-1.05,2.14,.53-.71-.18-1.42-.35-2.14-.53Z" fill="#b7a98e"/><path d="M78.96,153.11c1.15-.36,2.24-.43,3.06,.68-1.1,.13-2.2,.25-3.06-.68Z" fill="#66835f"/><path d="M91.13,161.77c.14,.25,.32,.49,.41,.76,.03,.08-.17,.24-.27,.37-.05-.38-.09-.76-.14-1.13Z" fill="#849679"/><path d="M133.87,198.51c.58-.66,1.3-.67,2.08-.45-.39,1.56-.99,2.13-2.08,.45Z" fill="#cab9a2"/><path d="M56.06,59.83c-.76-.02-1.51-.03-2.27-.05-1.43-2.08-4.25-3.14-4.51-6.3,5.03-.7,6.14,2.57,6.78,6.35Z" fill="#f6bc96"/><path d="M53.96,62.91c3.24-.05,6.47-.09,9.71-.14-3.19,2.99-6.42,3.36-9.71,.14Z" fill="#f6bc96"/><path d="M56.08,50.98c-.19,.14-.39,.28-.58,.42,.14-.2,.27-.39,.41-.59l.17,.17Z" fill="#f6bc96"/><path d="M55.91,50.81l.55-.39c-.13,.18-.25,.37-.38,.55,0,0-.17-.17-.17-.17Z" fill="#f6bc96"/></g></svg>